<svg width="489" height="489" viewBox="0 0 489 489" fill="none" xmlns="http://www.w3.org/2000/svg">
<rect x="163.199" y="108.75" width="54.3" height="54.3" fill="#442CBF"/>
<rect x="163.199" y="325.95" width="54.3" height="54.3" fill="#442CBF"/>
<rect x="108.898" y="163.05" width="54.3" height="54.3" fill="#442CBF"/>
<rect x="108.898" y="271.65" width="54.3" height="54.3" fill="#442CBF"/>
<rect x="271.801" y="108.75" width="54.3" height="54.3" fill="#442CBF"/>
<rect x="271.801" y="325.95" width="54.3" height="54.3" fill="#442CBF"/>
<rect x="326.102" y="163.05" width="54.3" height="54.3" fill="#442CBF"/>
<rect x="326.102" y="271.65" width="54.3" height="54.3" fill="#442CBF"/>
<rect x="217.5" y="54.4502" width="54.3" height="54.3" fill="#442CBF"/>
<rect x="217.5" y="434.55" width="54.3" height="54.3" fill="#442CBF"/>
<rect x="54.6016" y="217.35" width="54.3" height="54.3" fill="#442CBF"/>
<rect x="434.699" y="217.35" width="54.3" height="54.3" fill="#442CBF"/>
<rect x="0.300781" y="217.35" width="54.3" height="54.3" fill="#442CBF"/>
<rect x="380.398" y="217.35" width="54.3" height="54.3" fill="#442CBF"/>
<rect x="217.5" y="0.149902" width="54.3" height="54.3" fill="#442CBF"/>
<rect x="217.5" y="380.25" width="54.3" height="54.3" fill="#442CBF"/>
</svg>
