<svg width="489" height="489" viewBox="0 0 489 489" fill="none" xmlns="http://www.w3.org/2000/svg">
<rect x="217" y="271.251" width="54.2504" height="54.2504" fill="#442CBF"/>
<rect x="217" y="162.751" width="54.2504" height="54.2504" fill="#442CBF"/>
<rect x="271.238" y="217.002" width="54.2504" height="54.2504" fill="#442CBF"/>
<rect x="162.75" y="217.002" width="54.2504" height="54.2504" fill="#442CBF"/>
<rect x="433.988" y="217.002" width="54.2504" height="54.2504" fill="#442CBF"/>
<rect x="379.758" y="217.002" width="54.2504" height="54.2504" fill="#442CBF"/>
<rect x="54.2461" y="217.002" width="54.2504" height="54.2504" fill="#442CBF"/>
<rect y="217.002" width="54.2504" height="54.2504" fill="#442CBF"/>
<rect x="108.488" y="108.5" width="54.2504" height="54.2504" fill="#442CBF"/>
<rect x="54.2461" y="54.2502" width="54.2504" height="54.2504" fill="#442CBF"/>
<rect x="379.758" y="54.2502" width="54.2504" height="54.2504" fill="#442CBF"/>
<rect x="325.5" y="108.5" width="54.2504" height="54.2504" fill="#442CBF"/>
<rect x="54.2461" y="379.752" width="54.2504" height="54.2504" fill="#442CBF"/>
<rect x="108.488" y="325.503" width="54.2504" height="54.2504" fill="#442CBF"/>
<rect x="379.758" y="379.752" width="54.2504" height="54.2504" fill="#442CBF"/>
<rect x="325.5" y="325.503" width="54.2504" height="54.2504" fill="#442CBF"/>
<rect x="217" y="434.003" width="54.2504" height="54.2504" fill="#442CBF"/>
<rect x="217" y="379.752" width="54.2504" height="54.2504" fill="#442CBF"/>
<rect x="217" y="54.2502" width="54.2504" height="54.2504" fill="#442CBF"/>
<rect x="217" width="54.2504" height="54.2504" fill="#442CBF"/>
</svg>
