<?xml version="1.0" encoding="utf-8"?><svg viewBox="0 0 922 651" xmlns="http://www.w3.org/2000/svg" xmlns:xlink="http://www.w3.org/1999/xlink"><style>:root>svg{display:none}:root>svg:target{display:block}</style><svg viewBox="0 0 30 30" id="close" xmlns="http://www.w3.org/2000/svg"><path fill-rule="evenodd" clip-rule="evenodd" d="M6.952 6.951a1.2 1.2 0 011.697 0L15 13.303l6.352-6.352a1.2 1.2 0 111.697 1.698L16.697 15l6.352 6.352a1.2 1.2 0 11-1.697 1.697L15 16.697 8.65 23.05a1.2 1.2 0 11-1.697-1.697L13.303 15 6.952 8.649a1.2 1.2 0 010-1.698z"/></svg><svg viewBox="0 0 490 490" id="decor-1" xmlns="http://www.w3.org/2000/svg"><path d="M163.333 108.889h54.445v54.444h-54.445v-54.444zM163.333 326.667h54.445v54.444h-54.445v-54.444zM108.889 163.333h54.444v54.445h-54.444v-54.445zM108.889 272.222h54.444v54.445h-54.444v-54.445zM272.222 108.889h54.445v54.444h-54.445v-54.444zM272.222 326.667h54.445v54.444h-54.445v-54.444zM326.667 163.333h54.444v54.445h-54.444v-54.445zM326.667 272.222h54.444v54.445h-54.444v-54.445z"/><path d="M217.778 54.444h54.444v54.445h-54.444V54.444zM217.778 435.556h54.444V490h-54.444v-54.444zM54.444 217.778h54.445v54.444H54.444v-54.444zM435.556 217.778H490v54.444h-54.444v-54.444zM0 217.778h54.444v54.444H0v-54.444zM381.111 217.778h54.445v54.444h-54.445v-54.444zM217.778 0h54.444v54.444h-54.444V0zM217.778 381.111h54.444v54.445h-54.444v-54.445z"/></svg><svg viewBox="0 0 385 385" id="decor-2" xmlns="http://www.w3.org/2000/svg"><path d="M220 0h-55v55h55V0zM220 55h-55v55h55V55zM165 110h-55v55h55v-55zM275 110h-55v55h55v-55zM110 165H55v55h55v-55zM55 165H0v55h55v-55zM165 220h-55v55h55v-55zM275 220h-55v55h55v-55zM330 165h-55v55h55v-55zM385 165h-55v55h55v-55zM220 275h-55v55h55v-55zM220 330h-55v55h55v-55z"/></svg><svg viewBox="0 0 164 164" id="decor-3" xmlns="http://www.w3.org/2000/svg"><path d="M54.667 109.333h54.667V164H54.667v-54.667zM54.667 0h54.667v54.667H54.667V0zM109.335 54.667h54.667v54.666h-54.667V54.667zM0 54.667h54.667v54.666H0V54.667z"/></svg><svg viewBox="0 0 922 651" id="decor-4" xmlns="http://www.w3.org/2000/svg"><path d="M162.703 596.588h54.234v54.235h-54.235v-54.235h-54.234v-54.235h54.235v54.235zm216.943-54.235h-54.233v54.235h-54.23v54.235h-54.236v-54.235h54.231v-54.235h54.233v-54.236h-54.233v-54.235h108.468v108.471zm271.182 54.235h54.23v54.235h-54.236v-54.235h-54.229v-54.235h54.235v54.235zm162.697 0h-54.229v54.235h-54.235v-54.235h54.229v-54.235h54.235v54.235zm-705.06-54.235H54.23V433.882h54.235v108.471zm488.117 0h-54.235V433.882h54.235v108.471zm271.182 0h-54.236V433.882h54.236v108.471zm-54.239-54.236H759.29v-54.235h54.235v54.235zM108.465 216.94h-54.23v216.941H0V216.94h54.23V108.47h54.235v108.47zm216.948-108.47h54.233v108.47H271.183v216.941h-54.236V216.94h54.231v-54.235h54.233v-54.234h-54.233V54.235h54.235v54.235zm108.472 325.411h-54.236V216.94h54.236v216.941zM596.582 216.94h-54.229v216.941h-54.236V216.94h54.23V108.47h54.235v108.47zm216.943 0h-54.229v216.941h-54.235V216.94h54.229v-54.235h54.235v54.235zm108.476 216.941h-54.235V216.94h54.235v216.941zm-542.355-54.235h-54.235v-108.47h54.235v108.47zm488.118 0h-54.236v-108.47h54.236v108.47zm0-162.706h-54.236V108.47h54.236v108.47zM162.703 108.471h-54.235V54.235h54.235v54.236zm488.125 0h-54.235V54.235h54.235v54.236zm162.697 0H759.29V54.235h54.235v54.236zM216.937 54.234h-54.235V0h54.235v54.234zm54.246 0h-54.236V0h54.236v54.234zm433.875 0h-54.236V0h54.236v54.234zm54.238 0h-54.235V0h54.235v54.234z"/></svg><svg viewBox="0 0 490 490" id="decor-5" xmlns="http://www.w3.org/2000/svg"><path d="M217.003 271.251h54.25v54.25h-54.25v-54.25zM217.003 162.751h54.25v54.25h-54.25v-54.25z"/><path d="M271.24 217.002h54.251v54.25H271.24v-54.25zM162.75 217.002h54.251v54.25H162.75v-54.25zM433.99 217.002h54.251v54.25H433.99v-54.25z"/><path d="M379.757 217.002h54.251v54.25h-54.251v-54.25zM54.249 217.002h54.25v54.25h-54.25v-54.25z"/><path d="M0 217.002h54.25v54.25H0v-54.25zM108.49 108.501h54.25v54.25h-54.25v-54.25zM54.249 54.25h54.25v54.25h-54.25V54.25zM379.757 54.25h54.251v54.25h-54.251V54.25zM325.501 108.501h54.25v54.25h-54.25v-54.25zM54.249 379.752h54.25v54.25h-54.25v-54.25z"/><path d="M108.49 325.504h54.25v54.25h-54.25v-54.25zM379.757 379.752h54.251v54.25h-54.251v-54.25zM325.501 325.504h54.25v54.25h-54.25v-54.25zM217.003 434.004h54.25v54.25h-54.25v-54.25zM217.003 379.752h54.25v54.25h-54.25v-54.25zM217.003 54.25h54.25v54.25h-54.25V54.25zM217.003 0h54.25v54.25h-54.25V0z"/></svg><svg viewBox="0 0 30 30" id="menu-open" xmlns="http://www.w3.org/2000/svg"><path d="M6 10h18v2H6v-2zM6 14h13v2H6v-2zM6 18h18v2H6v-2z"/></svg></svg>