<?xml version="1.0" encoding="utf-8"?><svg viewBox="0 0 490 490" xmlns="http://www.w3.org/2000/svg" xmlns:xlink="http://www.w3.org/1999/xlink"><style>:root>svg{display:none}:root>svg:target{display:block}</style><svg viewBox="0 0 30 30" id="close" xmlns="http://www.w3.org/2000/svg"><path fill-rule="evenodd" clip-rule="evenodd" d="M6.952 6.951a1.2 1.2 0 011.697 0L15 13.303l6.352-6.352a1.2 1.2 0 111.697 1.698L16.697 15l6.352 6.352a1.2 1.2 0 11-1.697 1.697L15 16.697 8.65 23.05a1.2 1.2 0 11-1.697-1.697L13.303 15 6.952 8.649a1.2 1.2 0 010-1.698z"/></svg><svg viewBox="0 0 490 490" id="decor-1" xmlns="http://www.w3.org/2000/svg"><path d="M163.333 108.889h54.445v54.444h-54.445v-54.444zM163.333 326.667h54.445v54.444h-54.445v-54.444zM108.889 163.333h54.444v54.445h-54.444v-54.445zM108.889 272.222h54.444v54.445h-54.444v-54.445zM272.222 108.889h54.445v54.444h-54.445v-54.444zM272.222 326.667h54.445v54.444h-54.445v-54.444zM326.667 163.333h54.444v54.445h-54.444v-54.445zM326.667 272.222h54.444v54.445h-54.444v-54.445z"/><path d="M217.778 54.444h54.444v54.445h-54.444V54.444zM217.778 435.556h54.444V490h-54.444v-54.444zM54.444 217.778h54.445v54.444H54.444v-54.444zM435.556 217.778H490v54.444h-54.444v-54.444zM0 217.778h54.444v54.444H0v-54.444zM381.111 217.778h54.445v54.444h-54.445v-54.444zM217.778 0h54.444v54.444h-54.444V0zM217.778 381.111h54.444v54.445h-54.444v-54.445z"/></svg><svg viewBox="0 0 380 380" id="decor-2" xmlns="http://www.w3.org/2000/svg"><path d="M108.574 108.571h54.286v54.286h-54.286v-54.286zM217.141 108.571h54.286v54.286h-54.286v-54.286zM108.574 217.143h54.286v54.286h-54.286v-54.286zM54.285 162.857h54.286v54.286H54.285v-54.286zM325.715 162.857h54.286v54.286h-54.286v-54.286z"/><path d="M0 162.857h54.286v54.286H0v-54.286zM271.43 162.857h54.286v54.286H271.43v-54.286zM217.141 217.143h54.286v54.286h-54.286v-54.286zM162.856 54.285h54.285v54.286h-54.285V54.286zM162.856 325.714h54.285V380h-54.285v-54.286z"/><path d="M162.856 0h54.285v54.286h-54.285V0zM162.856 271.429h54.285v54.285h-54.285v-54.285z"/></svg><svg viewBox="0 0 164 164" id="decor-3" xmlns="http://www.w3.org/2000/svg"><path d="M54.667 109.333h54.667V164H54.667v-54.667zM54.667 0h54.667v54.667H54.667V0zM109.335 54.667h54.667v54.666h-54.667V54.667zM0 54.667h54.667v54.666H0V54.667z"/></svg><svg viewBox="0 0 30 30" id="menu-open" xmlns="http://www.w3.org/2000/svg"><path d="M6 10h18v2H6v-2zM6 14h13v2H6v-2zM6 18h18v2H6v-2z"/></svg></svg>