<svg width="400" height="520" viewBox="0 0 400 520" fill="none" xmlns="http://www.w3.org/2000/svg">
<path d="M320 440H240V520H160V480H200V400H320V440ZM160 480H120V440H160V480ZM120 440H-80V400H120V440ZM-80 400H-120V360H-80V400ZM360 400H320V360H360V400ZM-120 360H-160V80H-120V360ZM400 360H360V80H400V360ZM200 320H40V280H200V320ZM40 280H0V240H40V280ZM240 280H200V240H240V280ZM80 200H40V160H0V120H80V200ZM200 200H160V160H120V120H200V200ZM-80 80H-120V40H-80V80ZM360 80H320V40H360V80ZM320 40H-80V0H320V40Z" fill="black"/>
</svg>
