<svg width="380" height="380" viewBox="0 0 380 380" xmlns="http://www.w3.org/2000/svg"><path d="M108.574 108.571H162.86V162.857H108.574V108.571Z"/><path d="M217.141 108.571H271.427V162.857H217.141V108.571Z"/><path d="M108.574 217.143H162.86V271.429H108.574V217.143Z"/><path d="M54.2852 162.857H108.571V217.143H54.2852V162.857Z"/><path d="M325.715 162.857H380.001V217.143H325.715V162.857Z"/><path d="M0 162.857H54.2857V217.143H0V162.857Z"/><path d="M271.43 162.857H325.716V217.143H271.43V162.857Z"/><path d="M217.141 217.143H271.427V271.429H217.141V217.143Z"/><path d="M162.856 54.2855H217.141V108.571H162.856V54.2855Z"/><path d="M162.856 325.714H217.141V380H162.856V325.714Z"/><path d="M162.856 0H217.141V54.2857H162.856V0Z"/><path d="M162.856 271.429H217.141V325.714H162.856V271.429Z"/></svg>