<svg width="762" height="762" viewBox="0 0 762 762" fill="none" xmlns="http://www.w3.org/2000/svg">
<path d="M55.2857 1H1V55.2857M55.2857 1V55.2857M55.2857 1H109.571M55.2857 55.2857H1M55.2857 55.2857H109.571M55.2857 55.2857V109.571M1 55.2857V109.571M109.571 1V55.2857M109.571 1H163.857M109.571 55.2857H163.857M109.571 55.2857V109.571M163.857 1V55.2857M163.857 1H218.143M163.857 55.2857H218.143M163.857 55.2857V109.571M218.143 1V55.2857M218.143 1H272.429M218.143 55.2857H272.429M218.143 55.2857V109.571M272.429 1V55.2857M272.429 1H326.714M272.429 55.2857H326.714M272.429 55.2857V109.571M326.714 1V55.2857M326.714 1H381M326.714 55.2857H381M326.714 55.2857V109.571M381 1V55.2857M381 1H435.286M381 55.2857H435.286M381 55.2857V109.571M435.286 1V55.2857M435.286 1H489.571M435.286 55.2857H489.571M435.286 55.2857V109.571M489.571 1V55.2857M489.571 1H543.857M489.571 55.2857H543.857M489.571 55.2857V109.571M543.857 1V55.2857M543.857 1H598.143M543.857 55.2857H598.143M543.857 55.2857V109.571M598.143 1V55.2857M598.143 1H652.429M598.143 55.2857H652.429M598.143 55.2857V109.571M652.429 1V55.2857M652.429 1H706.714M652.429 55.2857H706.714M652.429 55.2857V109.571M706.714 1V55.2857M706.714 1H761V55.2857M706.714 55.2857H761M706.714 55.2857V109.571M761 55.2857V109.571M55.2857 109.571H1M55.2857 109.571H109.571M55.2857 109.571V163.857M1 109.571V163.857M109.571 109.571H163.857M109.571 109.571V163.857M163.857 109.571H218.143M163.857 109.571V163.857M218.143 109.571H272.429M218.143 109.571V163.857M272.429 109.571H326.714M272.429 109.571V163.857M326.714 109.571H381M326.714 109.571V163.857M381 109.571H435.286M381 109.571V163.857M435.286 109.571H489.571M435.286 109.571V163.857M489.571 109.571H543.857M489.571 109.571V163.857M543.857 109.571H598.143M543.857 109.571V163.857M598.143 109.571H652.429M598.143 109.571V163.857M652.429 109.571H706.714M652.429 109.571V163.857M706.714 109.571H761M706.714 109.571V163.857M761 109.571V163.857M55.2857 163.857H1M55.2857 163.857H109.571M55.2857 163.857V218.143M1 163.857V218.143M109.571 163.857H163.857M109.571 163.857V218.143M163.857 163.857H218.143M163.857 163.857V218.143M218.143 163.857H272.429M218.143 163.857V218.143M272.429 163.857H326.714M272.429 163.857V218.143M326.714 163.857H381M326.714 163.857V218.143M381 163.857H435.286M381 163.857V218.143M435.286 163.857H489.571M435.286 163.857V218.143M489.571 163.857H543.857M489.571 163.857V218.143M543.857 163.857H598.143M543.857 163.857V218.143M598.143 163.857H652.429M598.143 163.857V218.143M652.429 163.857H706.714M652.429 163.857V218.143M706.714 163.857H761M706.714 163.857V218.143M761 163.857V218.143M55.2857 218.143H1M55.2857 218.143H109.571M55.2857 218.143V272.429M1 218.143V272.429M109.571 218.143H163.857M109.571 218.143V272.429M163.857 218.143H218.143M163.857 218.143V272.429M218.143 218.143H272.429M218.143 218.143V272.429M272.429 218.143H326.714M272.429 218.143V272.429M326.714 218.143H381M326.714 218.143V272.429M381 218.143H435.286M381 218.143V272.429M435.286 218.143H489.571M435.286 218.143V272.429M489.571 218.143H543.857M489.571 218.143V272.429M543.857 218.143H598.143M543.857 218.143V272.429M598.143 218.143H652.429M598.143 218.143V272.429M652.429 218.143H706.714M652.429 218.143V272.429M706.714 218.143H761M706.714 218.143V272.429M761 218.143V272.429M55.2857 272.429H1M55.2857 272.429H109.571M55.2857 272.429V326.714M1 272.429V326.714M109.571 272.429H163.857M109.571 272.429V326.714M163.857 272.429H218.143M163.857 272.429V326.714M218.143 272.429H272.429M218.143 272.429V326.714M272.429 272.429H326.714M272.429 272.429V326.714M326.714 272.429H381M326.714 272.429V326.714M381 272.429H435.286M381 272.429V326.714M435.286 272.429H489.571M435.286 272.429V326.714M489.571 272.429H543.857M489.571 272.429V326.714M543.857 272.429H598.143M543.857 272.429V326.714M598.143 272.429H652.429M598.143 272.429V326.714M652.429 272.429H706.714M652.429 272.429V326.714M706.714 272.429H761M706.714 272.429V326.714M761 272.429V326.714M55.2857 326.714H1M55.2857 326.714H109.571M55.2857 326.714V381M1 326.714V381M109.571 326.714H163.857M109.571 326.714V381M163.857 326.714H218.143M163.857 326.714V381M218.143 326.714H272.429M218.143 326.714V381M272.429 326.714H326.714M272.429 326.714V381M326.714 326.714H381M326.714 326.714V381M381 326.714H435.286M381 326.714V381M435.286 326.714H489.571M435.286 326.714V381M489.571 326.714H543.857M489.571 326.714V381M543.857 326.714H598.143M543.857 326.714V381M598.143 326.714H652.429M598.143 326.714V381M652.429 326.714H706.714M652.429 326.714V381M706.714 326.714H761M706.714 326.714V381M761 326.714V381M55.2857 381H1M55.2857 381H109.571M55.2857 381V435.286M1 381V435.286M109.571 381H163.857M109.571 381V435.286M163.857 381H218.143M163.857 381V435.286M218.143 381H272.429M218.143 381V435.286M272.429 381H326.714M272.429 381V435.286M326.714 381H381M326.714 381V435.286M381 381H435.286M381 381V435.286M435.286 381H489.571M435.286 381V435.286M489.571 381H543.857M489.571 381V435.286M543.857 381H598.143M543.857 381V435.286M598.143 381H652.429M598.143 381V435.286M652.429 381H706.714M652.429 381V435.286M706.714 381H761M706.714 381V435.286M761 381V435.286M55.2857 435.286H1M55.2857 435.286H109.571M55.2857 435.286V489.571M1 435.286V489.571M109.571 435.286H163.857M109.571 435.286V489.571M163.857 435.286H218.143M163.857 435.286V489.571M218.143 435.286H272.429M218.143 435.286V489.571M272.429 435.286H326.714M272.429 435.286V489.571M326.714 435.286H381M326.714 435.286V489.571M381 435.286H435.286M381 435.286V489.571M435.286 435.286H489.571M435.286 435.286V489.571M489.571 435.286H543.857M489.571 435.286V489.571M543.857 435.286H598.143M543.857 435.286V489.571M598.143 435.286H652.429M598.143 435.286V489.571M652.429 435.286H706.714M652.429 435.286V489.571M706.714 435.286H761M706.714 435.286V489.571M761 435.286V489.571M55.2857 489.571H1M55.2857 489.571H109.571M55.2857 489.571V543.857M1 489.571V543.857M109.571 489.571H163.857M109.571 489.571V543.857M163.857 489.571H218.143M163.857 489.571V543.857M218.143 489.571H272.429M218.143 489.571V543.857M272.429 489.571H326.714M272.429 489.571V543.857M326.714 489.571H381M326.714 489.571V543.857M381 489.571H435.286M381 489.571V543.857M435.286 489.571H489.571M435.286 489.571V543.857M489.571 489.571H543.857M489.571 489.571V543.857M543.857 489.571H598.143M543.857 489.571V543.857M598.143 489.571H652.429M598.143 489.571V543.857M652.429 489.571H706.714M652.429 489.571V543.857M706.714 489.571H761M706.714 489.571V543.857M761 489.571V543.857M55.2857 543.857H1M55.2857 543.857H109.571M55.2857 543.857V598.143M1 543.857V598.143M109.571 543.857H163.857M109.571 543.857V598.143M163.857 543.857H218.143M163.857 543.857V598.143M218.143 543.857H272.429M218.143 543.857V598.143M272.429 543.857H326.714M272.429 543.857V598.143M326.714 543.857H381M326.714 543.857V598.143M381 543.857H435.286M381 543.857V598.143M435.286 543.857H489.571M435.286 543.857V598.143M489.571 543.857H543.857M489.571 543.857V598.143M543.857 543.857H598.143M543.857 543.857V598.143M598.143 543.857H652.429M598.143 543.857V598.143M652.429 543.857H706.714M652.429 543.857V598.143M706.714 543.857H761M706.714 543.857V598.143M761 543.857V598.143M55.2857 598.143H1M55.2857 598.143H109.571M55.2857 598.143V652.429M1 598.143V652.429M109.571 598.143H163.857M109.571 598.143V652.429M163.857 598.143H218.143M163.857 598.143V652.429M218.143 598.143H272.429M218.143 598.143V652.429M272.429 598.143H326.714M272.429 598.143V652.429M326.714 598.143H381M326.714 598.143V652.429M381 598.143H435.286M381 598.143V652.429M435.286 598.143H489.571M435.286 598.143V652.429M489.571 598.143H543.857M489.571 598.143V652.429M543.857 598.143H598.143M543.857 598.143V652.429M598.143 598.143H652.429M598.143 598.143V652.429M652.429 598.143H706.714M652.429 598.143V652.429M706.714 598.143H761M706.714 598.143V652.429M761 598.143V652.429M55.2857 652.429H1M55.2857 652.429H109.571M55.2857 652.429V706.714M1 652.429V706.714M109.571 652.429H163.857M109.571 652.429V706.714M163.857 652.429H218.143M163.857 652.429V706.714M218.143 652.429H272.429M218.143 652.429V706.714M272.429 652.429H326.714M272.429 652.429V706.714M326.714 652.429H381M326.714 652.429V706.714M381 652.429H435.286M381 652.429V706.714M435.286 652.429H489.571M435.286 652.429V706.714M489.571 652.429H543.857M489.571 652.429V706.714M543.857 652.429H598.143M543.857 652.429V706.714M598.143 652.429H652.429M598.143 652.429V706.714M652.429 652.429H706.714M652.429 652.429V706.714M706.714 652.429H761M706.714 652.429V706.714M761 652.429V706.714M55.2857 706.714H1M55.2857 706.714H109.571M55.2857 706.714V761M1 706.714V761H55.2857M109.571 706.714H163.857M109.571 706.714V761M163.857 706.714H218.143M163.857 706.714V761M218.143 706.714H272.429M218.143 706.714V761M272.429 706.714H326.714M272.429 706.714V761M326.714 706.714H381M326.714 706.714V761M381 706.714H435.286M381 706.714V761M435.286 706.714H489.571M435.286 706.714V761M489.571 706.714H543.857M489.571 706.714V761M543.857 706.714H598.143M543.857 706.714V761M598.143 706.714H652.429M598.143 706.714V761M652.429 706.714H706.714M652.429 706.714V761M706.714 706.714H761M706.714 706.714V761M761 706.714V761H706.714M55.2857 761H109.571M109.571 761H163.857M163.857 761H218.143M218.143 761H272.429M272.429 761H326.714M326.714 761H381M381 761H435.286M435.286 761H489.571M489.571 761H543.857M543.857 761H598.143M598.143 761H652.429M652.429 761H706.714" stroke="#F4F4F4" stroke-opacity="0.16"/>
<path d="M218.143 706.714H435.286V652.428H218.143V706.714ZM435.286 652.428H543.857V598.143H435.286V652.428ZM163.857 652.428H218.143V598.143H163.857V652.428ZM543.857 598.143H598.143V543.857H543.857V598.143ZM109.572 598.143H163.857V543.857H109.572V598.143ZM598.143 543.857H652.428V435.286H598.143V543.857ZM55.2856 543.857H109.572V218.143H55.2856V543.857ZM326.714 489.572H381V435.286H326.714V489.572ZM218.143 489.572H272.428V435.286H218.143V489.572ZM598.143 326.714H652.428V435.286H706.714V272.428H598.143V326.714ZM489.572 435.286H543.857V381H598.143V326.714H543.857V109.572H489.572V435.286ZM163.857 435.286H218.143V326.714H272.428V435.286H326.714V326.714H381V435.286H435.286V109.572H381V272.428H218.143V218.143H163.857V435.286ZM109.572 218.143H163.857V163.857H109.572V218.143ZM435.286 109.572H489.572V55.2857H435.286V109.572Z" fill="#442CBF"/>
</svg>
