<svg width="248" height="55" viewBox="0 0 248 55" fill="none" xmlns="http://www.w3.org/2000/svg">
<path fill-rule="evenodd" clip-rule="evenodd" d="M62.8924 43.0133C62.7873 44.0762 62.463 45.0655 61.6839 45.7981C60.9408 46.5397 59.7638 46.9481 58.7144 46.93H43.4634C42.3554 46.942 41.1259 46.4917 40.3618 45.69C39.5451 44.8959 39.2599 43.7985 39.2854 42.659V27.3719C39.2629 26.2295 39.5466 25.1276 40.3618 24.3259C41.1259 23.5242 42.3569 23.0799 43.4634 23.1024H58.7144C59.8253 23.0829 61.0564 23.5257 61.8265 24.3259C62.6447 25.1245 62.9254 26.231 62.8849 27.3734V43.0133H62.8924ZM72.2631 45.6855C71.4836 44.9591 70.9975 43.972 70.897 42.9112V26.8705C70.8991 25.3004 70.5771 23.7467 69.9512 22.3067C69.3541 20.9045 68.4957 19.6288 67.4216 18.5476C66.3633 17.4807 65.1094 16.6275 63.7286 16.0346C62.3084 15.4032 60.7715 15.0769 59.2173 15.0768H42.9649C41.4113 15.0772 39.875 15.4034 38.4552 16.0346C37.0745 16.6303 35.8197 17.4831 34.7577 18.5476C33.6893 19.6279 32.8328 20.8989 32.2326 22.2947C31.6082 23.735 31.2878 25.2887 31.2913 26.8585V43.1619C31.2796 44.7136 31.6022 46.2497 32.2371 47.6656C33.4393 50.4582 35.6632 52.6859 38.4537 53.8928C39.8799 54.5068 41.4127 54.822 42.9634 54.8235H59.2173C62.1009 54.8294 64.8862 53.7765 67.0448 51.8646C68.0977 52.8207 69.3014 53.5963 70.6072 54.16C72.0154 54.7575 73.5286 54.8566 75.0569 54.8476H76.7923V46.924H75.0719C74.0144 46.869 73.0139 46.4277 72.2601 45.684L72.2631 45.6855ZM233.772 43.0133C233.666 44.0762 233.343 45.0655 232.564 45.7981C231.821 46.5397 230.644 46.9481 229.594 46.93H214.343C213.235 46.942 212.007 46.4917 211.242 45.69C210.425 44.8959 210.14 43.7985 210.165 42.659V27.3719C210.143 26.2295 210.428 25.1276 211.242 24.3259C212.006 23.5242 213.237 23.0799 214.343 23.1024H229.594C230.704 23.0829 231.936 23.5257 232.706 24.3259C233.525 25.1245 233.805 26.231 233.766 27.3734V43.0133H233.772ZM243.143 45.6855C242.364 44.9588 241.879 43.9718 241.778 42.9112V26.8705C241.78 25.3003 241.458 23.7466 240.831 22.3067C240.234 20.9045 239.376 19.6288 238.302 18.5476C237.241 17.4836 235.988 16.6308 234.608 16.0346C233.189 15.4034 231.652 15.0772 230.099 15.0768H213.845C212.291 15.0772 210.755 15.4034 209.335 16.0346C207.954 16.6303 206.7 17.4831 205.638 18.5476C204.57 19.6281 203.714 20.899 203.114 22.2947C202.489 23.7349 202.168 25.2886 202.171 26.8585V43.1619C202.16 44.7138 202.483 46.2498 203.119 47.6656C204.319 50.4591 206.544 52.6871 209.335 53.8928C210.759 54.5061 212.293 54.8228 213.843 54.8235H230.097C232.981 54.8294 235.766 53.7765 237.925 51.8646C238.979 52.8186 240.183 53.5939 241.487 54.16C242.894 54.7575 244.409 54.8566 245.937 54.8476H247.672V46.924H245.952C244.894 46.869 243.894 46.4277 243.14 45.684L243.143 45.6855ZM12.3082 2.7531C10.7866 2.81016 9.29121 3.16729 7.90803 3.80396C6.56998 4.42346 5.34943 5.27018 4.30056 6.30653C3.24839 7.37355 2.41372 8.63498 1.84303 10.0206C1.23498 11.4437 0.926818 12.9768 0.937783 14.5243V54.8476H8.93938V30.4975H25.6902V22.5875H8.93938V14.5258C8.93938 12.316 10.6958 10.7472 12.7916 10.7472H25.6587V2.7531H12.3082ZM154.573 0.580805C153.884 0.569005 153.201 0.700956 152.566 0.968233C151.931 1.23551 151.359 1.63224 150.886 2.13309C150.39 2.60822 149.996 3.18027 149.73 3.81375C149.464 4.44723 149.331 5.12861 149.34 5.81562C149.325 7.19526 149.886 8.51785 150.892 9.46513C151.379 9.9397 151.955 10.3126 152.587 10.5621C153.219 10.8116 153.895 10.9327 154.574 10.9183C155.248 10.9289 155.916 10.8034 156.54 10.5493C157.163 10.2952 157.729 9.91774 158.203 9.43961C158.689 8.96639 159.075 8.39933 159.336 7.77279C159.597 7.14625 159.728 6.47326 159.721 5.79461C159.728 5.11157 159.597 4.4341 159.338 3.80231C159.078 3.17053 158.694 2.5973 158.209 2.11657C157.744 1.62022 157.181 1.22713 156.554 0.962806C155.928 0.698485 155.253 0.568847 154.573 0.582306" fill="#F4F4F4"/>
<path d="M158.527 15.0798H150.535V54.8506H158.527V15.0798ZM175.74 2.7531H167.748V54.8506H175.74V2.7531Z" fill="#F4F4F4"/>
<path fill-rule="evenodd" clip-rule="evenodd" d="M120.258 15.0828C117.275 15.0452 114.355 16.2297 112.166 18.2804C109.985 16.2507 107.062 15.0227 104.11 15.0828H95.3897C92.2986 15.0828 89.5078 16.2823 87.4031 18.2399C85.2848 16.3979 82.5121 15.2149 79.6072 15.0828H78.2816V23.1444H79.4751C81.7014 23.2735 83.4578 25.084 83.4578 27.3013L83.4548 54.8701H91.6486V27.2203C91.6486 24.9654 93.3045 23.1429 95.5593 23.1429L103.945 23.1369C105.967 23.1429 107.889 24.6997 107.921 26.7444V54.8536H116.458V26.7774C116.452 24.4355 118.184 23.1759 120.427 23.1099H128.768C131.035 23.1429 132.691 24.9654 132.743 27.2008V54.8536H140.813V26.8945C140.571 20.4017 135.447 15.0452 128.936 15.0828H120.258ZM188.978 0.580805C188.29 0.569005 187.606 0.700956 186.971 0.968233C186.336 1.23551 185.764 1.63224 185.291 2.13309C184.795 2.60835 184.402 3.18046 184.137 3.81393C183.871 4.4474 183.738 5.12872 183.747 5.81562C183.738 6.4982 183.871 7.17512 184.138 7.80338C184.405 8.43165 184.8 8.99754 185.297 9.46513C185.783 9.94039 186.36 10.3138 186.992 10.5633C187.624 10.8128 188.3 10.9336 188.98 10.9183C189.653 10.9289 190.322 10.8034 190.945 10.5493C191.569 10.2952 192.134 9.91774 192.608 9.43961C193.095 8.96639 193.48 8.39933 193.741 7.77279C194.002 7.14625 194.133 6.47326 194.126 5.79461C194.133 5.11147 194.002 4.43393 193.742 3.80214C193.483 3.17035 193.098 2.59717 192.613 2.11657C192.148 1.62041 191.585 1.22743 190.959 0.963114C190.333 0.6988 189.658 0.569059 188.978 0.582306" fill="#F4F4F4"/>
<path d="M192.933 15.0798H184.94V54.8506H192.933V15.0798Z" fill="#F4F4F4"/>
</svg>
