<svg width="339" height="56" viewBox="0 0 339 56" fill="none" xmlns="http://www.w3.org/2000/svg">
<path fill-rule="evenodd" clip-rule="evenodd" d="M9.03146 17.6314C9.49476 16.6464 11.3563 15.6948 12.8088 15.2565C13.5226 15.0436 17.133 14.0753 17.7048 14.4509C15.8892 15.7365 15.2714 15.436 13.6394 17.4353C12.2328 19.1591 10.7594 18.988 9.03146 17.6314ZM131.193 8.1275C121.413 7.78941 111.672 7.48472 101.85 8.1275C97.8143 8.39045 93.1771 11.404 91.5618 15.4109L84.533 32.8411C94.3124 33.1792 104.096 33.4839 113.875 32.8411C117.912 32.574 122.549 29.5646 124.164 25.5577L124.903 23.7295H113.938C112.799 25.5785 111.354 26.91 109.869 27.0561C104.914 27.5486 99.6425 27.3274 94.6881 27.0686C95.6689 24.6227 96.6373 22.1685 97.639 19.7309C98.8494 16.7841 100.807 14.3466 102.852 14.1421C107.807 13.6496 113.078 13.8708 118.033 14.1296C117.636 15.1229 117.24 16.1205 116.839 17.1139H127.57L131.193 8.1275ZM338.18 7.94385C328.401 7.60576 318.379 7.30107 308.558 7.94385C304.522 8.2068 299.885 11.404 298.27 15.4109L291.241 32.8411H299.088L301.93 25.9876H311.655L318.004 32.3486H330.613L323.643 25.3615C329.131 25.278 332.024 23.2203 333.99 18.3452L338.18 7.94385ZM304.472 19.7727C309.426 20.0314 314.698 20.2527 319.652 19.7601C321.264 19.6015 322.762 18.2241 323.885 16.1789L324.932 13.6329C319.978 13.3741 314.706 13.1529 309.752 13.6454C308.141 13.804 306.663 15.2273 305.541 17.2725L304.472 19.7727ZM254.728 32.8411H244.502L267.496 10.252C269.641 8.07324 271.235 7.10489 275.359 7.10489H286.983L288.019 32.8453H276.394L276.215 28.3667H259.256L254.728 32.8453V32.8411ZM275.981 22.4773L275.731 13.3574C275.701 12.6353 274.8 12.9984 274.495 13.2948L265.208 22.4773H275.981ZM253.45 7.53063C243.671 7.19255 233.412 6.93794 223.595 7.58072C219.563 7.84367 214.708 11.3957 213.122 15.4109L206.461 32.2943C216.24 32.6324 226.024 32.9371 235.803 32.2943C239.835 32.0314 243.942 29.4603 245.745 25.5326L249.514 17.3226H226.963L224.893 22.4773H236.492C235.306 24.5935 233.737 26.1671 232.113 26.3298C227.159 26.8224 221.887 26.6011 216.933 26.3424C217.914 23.8965 218.882 21.4422 219.884 19.0047C221.094 16.0579 223.052 13.6203 225.097 13.4158C229.914 12.9358 235.027 13.132 239.856 13.3824L250.913 13.8457L253.455 7.5348L253.45 7.53063ZM212.68 8.1275C208.852 7.99393 204.933 7.96889 200.997 7.98141L200.187 10.0016H200.175L195.504 21.4714C194.302 24.4182 192.336 26.8557 190.291 27.0603C185.337 27.5528 180.065 27.3316 175.111 27.0728L182.699 8.1275C179.101 8.1275 176.526 7.84785 174.247 10.9783C173.245 12.3556 172.489 14.0544 171.943 15.4109L164.914 32.8411C174.693 33.1792 185.579 33.4839 195.358 32.8411C199.394 32.5782 204.031 29.5646 205.647 25.5577L212.676 8.1275H212.68ZM170.632 8.1275C160.853 7.78941 151.111 7.48472 141.29 8.1275C137.253 8.39045 132.616 11.404 131.001 15.4109L123.972 32.8411C133.752 33.1792 143.535 33.4839 153.315 32.8411C157.351 32.574 161.988 29.5646 163.603 25.5577L170.632 8.1275ZM134.257 27.0728C139.211 27.3316 144.483 27.5528 149.437 27.0603C151.482 26.8557 153.44 24.414 154.65 21.4714C155.652 19.0339 156.62 16.5796 157.601 14.1337C152.647 13.8749 147.375 13.6537 142.421 14.1462C140.375 14.3508 138.418 16.7925 137.207 19.7351C136.206 22.1726 135.237 24.6269 134.257 27.0728ZM66.0844 8.61167C66.4642 8.08576 68.8266 6.58733 69.4068 6.18664C71.6231 4.67569 74.3904 3.32335 76.8488 2.35083C77.429 2.12127 80.5928 1.21553 80.9935 0.819013C67.8583 0.681275 54.9276 6.01551 44.6848 13.5243L42.2431 15.5695C37.3471 19.4763 30.3392 28.3917 34.8929 34.6776C37.3764 38.1044 40.3857 38.5719 41.9175 39.4692C41.8048 40.0285 40.5944 40.7214 40.152 41.0553C39.5176 41.5353 38.8163 41.9778 38.1402 42.4369C30.36 47.6751 14.5368 53.1972 4.81165 54.7749C4.08539 54.8918 3.93096 54.7499 3.46766 55.0838C21.3862 55.4052 37.4765 52.304 51.5801 45.6967C56.0879 43.5847 62.4823 40.0035 66.4225 36.6268C66.723 36.368 67.1112 36.1301 67.4242 35.8588C70.5421 33.1416 72.4162 31.1423 74.7744 27.9827C78.4516 23.0533 80.9267 14.8516 74.5156 10.9449C72.245 9.55914 69.1731 8.81619 66.0802 8.61167H66.0844ZM28.2314 7.18837C27.9934 5.9696 31.2407 -0.22446 27.7472 2.05449C25.318 3.64056 23.5316 5.16821 21.3152 7.03811C20.8394 7.43881 20.4679 7.89793 20.1465 8.17341C19.7291 8.53236 19.2324 8.8788 18.8568 9.20019C18.5062 9.50488 18.1097 10.0266 17.7507 10.2562C15.0627 11.9883 8.18416 13.7163 6.28086 16.997C5.68817 18.0154 5.24156 18.9838 4.55287 19.8937C2.90836 22.0641 0.16611 23.4248 0.888194 25.0151L2.8374 27.5653C4.67391 29.5187 3.86 28.4877 5.32087 29.5688C6.30173 30.295 7.10312 30.7291 8.73928 30.5997C8.58485 29.8943 7.80016 29.3476 7.67912 28.5796C9.13998 27.1354 13.2137 23.0158 15.3507 23.3497C18.0512 23.7712 19.8126 29.1305 19.8919 31.8352C19.9587 34.0808 20.0672 33.9263 18.7107 34.999C14.9166 38.0126 16.173 35.9841 14.0026 35.479C14.0067 36.9816 14.4325 37.5117 14.9584 38.6762C16.4985 42.0863 17.0036 41.9068 19.174 40.496C20.0589 39.92 20.8102 39.4108 21.5197 38.9058C23.1768 37.7246 25.0759 36.631 27.2296 36.5893C32.0379 36.4933 32.9938 37.4407 34.104 37.5242C32.9395 36.3263 31.7124 35.07 31.0863 33.15C29.7715 29.1013 31.5079 25.0276 33.6199 21.7886L36.8129 17.6481C37.2428 17.1765 38.2153 16.3083 38.737 15.7699C39.6595 14.8182 40.6612 13.7289 41.5962 13.061C41.9885 12.7814 42.193 12.5143 42.5311 12.2304C43.9294 11.0367 47.5899 8.60749 49.0925 7.65167L53.8382 5.12647C51.7596 4.92195 49.1509 5.25169 47.0765 5.35186C44.9645 5.45621 42.6229 5.48125 40.5569 5.7609L28.2355 7.19255L28.2314 7.18837Z" fill="#F4F4F4"/>
</svg>
