<svg width="318" height="53" viewBox="0 0 318 53" fill="none" xmlns="http://www.w3.org/2000/svg">
<path d="M242.471 41.5354C248.244 41.5354 252.847 40.6067 257.338 38.576V30.178C257.338 30.0128 257.165 29.9105 257.014 29.9892C252.365 32.4212 248.11 33.4759 242.471 33.4759C235.647 33.4759 232.152 30.2253 232.152 23.9603C232.152 17.6953 235.656 14.4447 242.471 14.4447C248.117 14.4447 252.365 15.4994 257.014 17.9314C257.165 18.0102 257.338 17.9078 257.338 17.7425V9.34469C252.847 7.31406 248.244 6.38533 242.471 6.38533C230.112 6.38533 223.003 12.7684 223.003 23.9683C223.003 35.1681 230.112 41.5511 242.471 41.5511V41.5354Z" fill="#F4F4F4"/>
<path d="M218.857 24.5264C218.857 11.9333 211.108 6.42392 199.965 6.42392C187.843 6.42392 180.497 13.0352 180.497 23.8338C180.497 37.1271 188.777 41.5347 200.789 41.5347C208.079 41.5347 213.852 40.37 217.813 38.8114V30.7599C217.813 30.5947 217.639 30.4922 217.498 30.5632C214.626 31.9878 208.094 33.7036 200.907 33.7036C194.596 33.7036 190.619 31.665 189.733 26.683H218.384C218.564 26.683 218.715 26.5491 218.746 26.3759C218.833 25.7699 218.874 25.1324 218.874 24.5343L218.857 24.5264ZM199.965 13.964C205.611 13.964 208.728 16.4825 209.883 20.1739H189.891C190.871 16.1915 193.916 13.964 199.958 13.964" fill="#F4F4F4"/>
<path d="M159.79 6.36203C153.701 6.36203 149.549 8.73102 146.963 12.2413C146.9 12.3279 146.758 12.2886 146.758 12.1784L146.615 7.2908H137.933V52.2632H146.853V35.8136C146.853 35.7035 146.987 35.6563 147.058 35.7506C149.644 39.2059 153.772 41.5356 159.797 41.5356C170.117 41.5356 176.53 34.1687 176.53 23.9526C176.53 13.7367 170.117 6.3698 159.797 6.3698M157.117 33.4675C151.107 33.4675 146.853 29.6974 146.853 23.9519C146.853 18.2065 151.107 14.4365 157.117 14.4365C163.585 14.4365 167.144 18.0884 167.144 23.9519C167.144 29.8155 163.585 33.4675 157.117 33.4675Z" fill="#F4F4F4"/>
<path d="M109.529 40.6623H118.448V15.3661H133.37V7.29868H94.5998V15.3661H109.53L109.529 40.6623Z" fill="#F4F4F4"/>
<path d="M62.2887 25.7863V7.29076H53.3136V41.1965C53.3136 41.6765 53.8592 41.9521 54.2467 41.6688L81.1805 22.1343V40.6612H90.1556V6.75548C90.1556 6.27538 89.61 5.99991 89.2226 6.28324L62.2889 25.779L62.2887 25.7863Z" fill="#F4F4F4"/>
<path d="M4.60281 41.0638C2.11187 41.0638 0.285156 40.9537 0.285156 40.9537V32.9336H1.73225C3.41659 32.9336 4.68977 32.5323 5.52788 31.7293C6.374 30.9266 6.9987 29.62 7.40193 27.802C7.80522 25.9917 8.12152 23.2685 8.35085 19.6401C8.5011 17.0823 8.65926 12.9816 8.80949 7.33055C8.84904 5.5754 8.90439 3.35588 8.98347 0.687744H44.9633V40.6628H35.0629V8.36152H18.2432C18.2037 8.89673 18.1088 11.014 17.9585 14.721C17.8795 17.3182 17.8083 18.9633 17.7292 19.648C17.3813 25.1889 16.8436 29.4233 16.1161 32.3591C15.3885 35.3026 14.1392 37.4828 12.3757 38.9152C10.6123 40.3477 8.01863 41.0638 4.61038 41.0638H4.60281Z" fill="#F4F4F4"/>
<path d="M277.451 7.26682C277.199 7.26682 277.127 7.42424 277.309 7.59738C278.289 8.58121 278.906 9.93488 278.906 11.4304C278.906 12.9259 278.298 14.2796 277.316 15.2555C277.127 15.4444 277.191 15.5939 277.547 15.5939H298.621C299.815 14.6022 300.581 13.0989 300.581 11.4225C300.581 9.74613 299.815 8.25061 298.621 7.25114H277.46L277.451 7.26682Z" fill="#F4F4F4"/>
<path d="M277.451 19.7979C277.199 19.7979 277.127 19.9553 277.309 20.1284C278.289 21.1122 278.906 22.4661 278.906 23.9614C278.906 25.4568 278.298 26.8106 277.316 27.7865C277.127 27.9755 277.191 28.1249 277.547 28.1249H290.404C291.598 27.1333 292.366 25.6299 292.366 23.9535C292.366 22.2771 291.598 20.7818 290.404 19.7821H277.46L277.451 19.7979Z" fill="#F4F4F4"/>
<path d="M277.451 32.3272C277.182 32.3272 277.118 32.4768 277.316 32.6658C278.296 33.6496 278.906 34.9954 278.906 36.4986C278.906 38.0021 278.296 39.3478 277.316 40.3239C277.127 40.5127 277.189 40.6623 277.545 40.6623H282.194C283.39 39.6706 284.156 38.1673 284.156 36.4909C284.156 34.8145 283.39 33.319 282.194 32.3195H277.458L277.451 32.3272Z" fill="#F4F4F4"/>
<path d="M315.58 7.26737H309.927C311.121 8.26693 311.887 9.75444 311.887 11.4388C311.887 13.1231 311.121 14.6107 309.927 15.6102H315.58C316.774 14.6185 317.542 13.1231 317.542 11.4388C317.542 9.75444 316.774 8.26684 315.58 7.26737Z" fill="#F4F4F4"/>
<path d="M309.927 7.26737H304.271C305.466 8.26693 306.232 9.75444 306.232 11.4388C306.232 13.1231 305.466 14.6107 304.271 15.6102H309.927C311.121 14.6185 311.887 13.1231 311.887 11.4388C311.887 9.75444 311.121 8.26693 309.927 7.26737Z" fill="#F4F4F4"/>
<path d="M315.58 19.7961H301.712C302.906 20.7958 303.672 22.2832 303.672 23.9675C303.672 25.6518 302.906 27.1394 301.712 28.1389H315.58C316.776 27.1473 317.542 25.6518 317.542 23.9675C317.542 22.2832 316.776 20.7958 315.58 19.7961Z" fill="#F4F4F4"/>
<path d="M301.71 19.7961H296.055C297.249 20.7958 298.017 22.2832 298.017 23.9675C298.017 25.6518 297.249 27.1394 296.055 28.1389H301.71C302.904 27.1473 303.67 25.6518 303.67 23.9675C303.67 22.2832 302.904 20.7958 301.71 19.7961Z" fill="#F4F4F4"/>
<path d="M304.271 7.26737H298.617C299.811 8.26693 300.579 9.75444 300.579 11.4388C300.579 13.1231 299.811 14.6107 298.617 15.6102H304.271C305.466 14.6185 306.232 13.1231 306.232 11.4388C306.232 9.75444 305.466 8.26693 304.271 7.26737Z" fill="#F4F4F4"/>
<path d="M296.055 19.7961H290.402C291.596 20.7958 292.364 22.2832 292.364 23.9675C292.364 25.6518 291.596 27.1394 290.402 28.1389H296.055C297.251 27.1473 298.017 25.6518 298.017 23.9675C298.017 22.2832 297.249 20.7958 296.055 19.7961Z" fill="#F4F4F4"/>
<path d="M315.58 32.3272H293.504C294.698 33.3267 295.464 34.8143 295.464 36.4986C295.464 38.183 294.698 39.6704 293.504 40.67H315.58C316.776 39.6783 317.542 38.183 317.542 36.4986C317.542 34.8143 316.776 33.3267 315.58 32.3272Z" fill="#F4F4F4"/>
<path d="M293.495 32.3272H287.84C289.033 33.3267 289.802 34.8143 289.802 36.4986C289.802 38.183 289.033 39.6704 287.84 40.67H293.495C294.688 39.6783 295.455 38.183 295.455 36.4986C295.455 34.8143 294.688 33.3267 293.495 32.3272Z" fill="#F4F4F4"/>
<path d="M287.84 32.3272H282.187C283.38 33.3267 284.148 34.8143 284.148 36.4986C284.148 38.183 283.38 39.6704 282.187 40.67H287.84C289.035 39.6783 289.802 38.183 289.802 36.4986C289.802 34.8143 289.033 33.3267 287.84 32.3272Z" fill="#F4F4F4"/>
</svg>
