<svg width="235" height="82" viewBox="0 0 235 82" fill="none" xmlns="http://www.w3.org/2000/svg">
<path fill-rule="evenodd" clip-rule="evenodd" d="M15.1959 14.34C17.543 14.6637 18.8223 15.8957 20.2072 19.0095L24.2068 27.5977H17.008L13.6491 19.6548C12.6914 17.2919 11.6235 16.6489 9.48992 16.6489H6.60996V27.5977H0.530766V0.758473H6.60996V11.442H9.9688C11.8348 11.3903 13.0623 10.7406 13.811 8.38443L16.3155 0.758473H22.7162L19.8902 8.64972C18.6627 12.1929 17.3834 13.0517 15.1959 13.3193V14.34ZM43.9394 0.00756836C50.3378 0.00756836 55.7763 4.57145 55.7763 14.1264C55.7763 24.1085 50.1242 28.3486 43.5122 28.3486C40.0994 28.3486 36.6327 26.9008 34.6587 23.3036H33.7527L34.018 27.0626V37.2583H27.9411V0.760722H33.5391L33.8606 5.21219H34.6587C36.7383 1.45767 40.2051 0.00756836 43.9394 0.00756836ZM42.0194 23.1957C46.5001 23.1957 49.7533 20.5136 49.7533 14.2343C49.7533 7.84486 46.5001 5.16273 42.0194 5.16273C37.7028 5.16273 34.018 7.57732 34.018 14.2343C34.018 20.7766 37.6983 23.1957 42.0194 23.1957ZM72.7908 28.3486C64.686 28.3486 58.6585 23.4655 58.6585 14.1241C58.6585 5.2684 64.6837 0.00981534 72.7908 0.00981534C80.8979 0.00981534 86.9231 5.27065 86.9231 14.1241C86.9231 23.4655 80.8956 28.3486 72.7908 28.3486ZM72.7908 5.37632C68.472 5.37632 64.686 8.00673 64.686 14.2343C64.686 20.3495 68.472 22.9799 72.7908 22.9799C77.1119 22.9799 80.8956 20.3495 80.8956 14.2343C80.8956 8.00673 77.1119 5.37632 72.7908 5.37632ZM126.067 0.758473V27.5977H91.0801V0.758473H97.1592V22.0693H105.691V0.756224H111.451V22.0693H119.985V0.756224L126.067 0.758473ZM147.985 27.5977L144.626 19.6548C143.664 17.2896 142.598 16.6466 140.464 16.6466H137.582V27.5977H131.503V0.758473H137.582V11.4398H140.943C142.809 11.3858 144.037 10.7428 144.781 8.38219L147.29 0.760722H153.688L150.862 8.64748C149.635 12.1907 148.356 13.0495 146.168 13.3193V14.34C148.515 14.6615 149.797 15.8935 151.182 19.0095L155.181 27.5977H147.985ZM181.474 10.9024V17.9371C181.474 23.2497 182.007 25.4529 182.594 27.6H176.569C176.036 26.2555 175.77 24.2703 175.717 22.8742V22.8225H174.808C173.315 25.9363 169.797 28.3509 165.316 28.3509C160.73 28.3509 156.89 25.988 156.89 20.8351C156.89 16.8625 159.291 11.0643 175.501 11.0643V10.2617C175.501 7.57957 173.797 5.15824 169.262 5.15824C165.049 5.15824 162.971 7.36149 162.971 10.1021V10.2594H157.052V10.0481C157.052 3.23151 162.971 0.00756836 169.051 0.00756836C178.169 0.00756836 181.474 4.73333 181.474 10.9047V10.9024ZM175.501 16.541V15.1471C165.422 15.2527 162.758 17.7752 162.758 20.4057C162.758 22.501 164.302 23.4632 166.542 23.4632C171.236 23.4632 175.235 19.8189 175.501 16.541ZM15.1802 58.522C17.5273 58.8457 18.8065 60.0777 20.1937 63.1938L24.1955 71.782H16.9922L13.6379 63.8345C12.6757 61.4739 11.61 60.8286 9.47869 60.8286H6.60096V71.7775H0.519531V44.9427H6.59871V55.624H9.95531C11.8236 55.5723 13.0489 54.9271 13.7998 52.5664L16.302 44.945H22.7027L19.8767 52.8362C18.6492 56.3772 17.3699 57.2337 15.1824 57.5013L15.1802 58.522ZM50.4862 55.0889V62.1214C50.4862 67.4339 51.019 69.6349 51.6058 71.782H45.5783C45.0478 70.4398 44.7802 68.4524 44.724 67.0562V67.0045H43.8202C42.3274 70.1183 38.8067 72.5329 34.3283 72.5329C29.7419 72.5329 25.8974 70.17 25.8974 65.0193C25.8974 61.0445 28.3008 55.2486 44.5127 55.2486V54.4437C44.5127 51.7616 42.804 49.3402 38.2739 49.3402C34.0585 49.3402 31.9789 51.5435 31.9789 54.2841V54.4414H26.0616V54.2301C26.0616 47.4113 31.9811 44.1918 38.0603 44.1918C47.1791 44.1918 50.4862 48.9131 50.4862 55.0889ZM44.5127 60.7252V59.3291C34.4339 59.437 31.7653 61.9595 31.7653 64.5877C31.7653 66.6785 33.3143 67.6497 35.5535 67.6497C40.2478 67.6497 44.2452 63.9986 44.5127 60.7252ZM71.6577 44.1918C78.0584 44.1918 83.4968 48.7557 83.4968 58.3106C83.4968 68.2927 77.8425 72.5306 71.2305 72.5306C67.8177 72.5306 64.351 71.0828 62.377 67.4856H61.471L61.7363 71.2424V81.4426H55.6571V44.9427H61.2552L61.5767 49.3964H62.3748C64.4544 45.6419 67.9234 44.1918 71.6577 44.1918ZM69.7377 67.3777C74.2184 67.3777 77.4693 64.6956 77.4693 58.4141C77.4693 52.0291 74.2184 49.3425 69.7355 49.3425C65.4166 49.3425 61.7363 51.7593 61.7363 58.4141C61.7363 64.9631 65.4166 67.3777 69.7377 67.3777ZM84.9357 50.4711V44.9427H109.149V50.4733H100.082V71.782H94.0027V50.4711H84.9357ZM124.72 44.1918C132.825 44.1918 138.852 49.4527 138.852 58.3106C138.852 67.6497 132.827 72.5306 124.72 72.5306C116.613 72.5306 110.588 67.652 110.588 58.3084C110.588 49.4504 116.615 44.1918 124.72 44.1918ZM124.72 67.1641C129.039 67.1641 132.825 64.5337 132.825 58.4141C132.825 52.1887 129.039 49.5583 124.72 49.5583C120.399 49.5583 116.615 52.1887 116.615 58.4163C116.615 64.5337 120.399 67.1641 124.72 67.1641ZM171.915 66.2536V44.9405H177.996V71.782H143.014V44.9427H149.091V66.2536H157.623V44.9405H163.383V66.2536H171.915ZM198.102 58.522C200.449 58.8457 201.728 60.0777 203.113 63.1938L207.113 71.782H199.914L196.555 63.8368C195.598 61.4761 194.53 60.8309 192.396 60.8309H189.516V71.7797H183.437V44.9427H189.516V55.624H192.875C194.741 55.5723 195.968 54.9271 196.717 52.5664L199.222 44.945H205.622L202.796 52.8362C201.569 56.3772 200.29 57.2337 198.102 57.5013V58.522ZM233.406 62.1191C233.406 67.4339 233.936 69.6349 234.525 71.782H228.498C227.965 70.4375 227.7 68.4524 227.646 67.0585V67.0045H226.738C225.247 70.1183 221.726 72.5329 217.248 72.5329C212.659 72.5329 208.819 70.1722 208.819 65.0171C208.819 61.0445 211.22 55.2486 227.432 55.2486V54.4459C227.432 51.7616 225.728 49.3425 221.194 49.3425C216.98 49.3425 214.901 51.5457 214.901 54.2841V54.4459H208.981V54.2301C208.981 47.4135 214.901 44.1896 220.98 44.1896C230.099 44.1896 233.406 48.9176 233.406 55.0867V62.1191ZM227.432 60.723V59.3291C217.351 59.437 214.687 61.9595 214.687 64.5899C214.687 66.6808 216.232 67.6475 218.473 67.6475C223.165 67.6475 227.167 63.9986 227.432 60.723Z" fill="#F4F4F4"/>
</svg>
