<svg width="243" height="82" viewBox="0 0 243 82" fill="none" xmlns="http://www.w3.org/2000/svg">
<path d="M46.3911 29.0924C49.1831 28.9761 52.2079 28.7434 54.7673 28.8598C58.2573 29.0924 60.3514 29.5578 61.9801 32.3498C62.4454 33.2805 63.7251 33.2805 63.7251 32.2335C63.7251 25.6024 59.7697 20.7163 54.9999 20.7163C51.6262 20.7163 49.9975 21.1816 48.6015 22.694C47.3218 24.09 46.5074 25.9514 45.6931 28.3944C45.6931 28.7434 45.8094 29.0924 46.3911 29.0924Z" fill="#F4F4F4"/>
<path d="M22.0769 68.6447C26.3813 63.0606 27.4284 58.4072 27.4284 53.6374C27.4284 40.6078 20.4482 31.7663 20.4482 23.3902C20.4482 14.7813 27.5447 13.1526 30.2204 12.8036C30.1041 12.3383 29.8714 11.6402 29.5224 11.0586C29.1734 10.5932 28.4754 10.2442 28.01 10.4769C27.5447 10.5932 27.4284 11.0586 27.4284 11.5239C27.4284 11.8729 27.661 12.1056 27.8937 12.4546C27.7774 12.4546 27.661 12.4546 27.4284 12.5709C27.1957 12.3383 27.0794 12.1056 26.7303 11.8729C25.567 10.7096 24.171 10.9422 23.5893 11.2912C23.1239 11.6402 23.2403 12.2219 23.4729 12.5709C23.5893 12.8036 23.9383 13.1526 24.171 13.3853C24.0546 13.3853 23.9383 13.5016 23.9383 13.5016C23.1239 13.1526 21.9606 12.8036 20.5646 12.8036C19.6339 12.8036 18.5868 13.0363 18.2378 13.7343C17.8888 14.316 18.1215 15.1303 19.1685 15.712C19.5175 15.8283 19.7502 15.9447 19.9829 16.061C19.8665 16.1773 19.8665 16.1773 19.7502 16.2937C15.9111 15.9447 13.0027 17.2244 13.1191 18.7367C13.2354 20.0164 15.2131 20.1328 16.9581 19.9001C16.9581 20.0164 16.8418 20.1328 16.8418 20.2491C14.9804 21.0634 11.8394 23.2738 12.1884 25.1352C12.4211 26.0659 14.1661 26.7639 16.8418 23.9718L17.0745 24.2045C16.2601 28.5089 18.7032 35.2564 18.7032 42.8182C18.7032 48.8677 15.6785 52.1251 10.2107 52.1251C7.06961 52.1251 2.99786 51.1944 0.205804 50.6127V59.9196C2.41618 59.8032 4.97557 59.8032 6.25526 59.9196L5.90625 61.4319C5.90625 61.4319 3.1142 62.0136 0.205804 62.479V71.9022C0.205804 76.0902 2.29985 79.115 5.32458 80.6273C13.4681 77.0209 18.7032 72.9492 22.0769 68.6447Z" fill="#F4F4F4"/>
<path d="M36.5026 0.00759888H9.978C4.62656 0.00759888 0.205803 3.96301 0.205803 10.1288V46.5419C2.88152 47.3562 6.83694 48.2869 9.629 48.2869C13.1191 48.2869 15.6785 47.0072 15.6785 41.4231C15.6785 37.3514 14.1661 31.5346 13.9334 27.9282C9.629 28.9752 7.18595 23.9728 12.4211 20.948C8.3493 20.3663 9.51266 15.1312 15.4458 14.8986C14.0498 11.7575 17.1908 10.3615 19.6339 11.1758C19.7502 8.84911 23.1239 8.1511 25.218 9.43079C27.5447 7.56942 31.3838 7.91843 33.0125 11.7575C36.8516 12.6882 39.6436 19.4357 43.0174 19.4357C47.7871 19.4357 49.6485 18.3886 54.6509 18.3886C60.7004 18.3886 66.5172 22.8094 66.5172 31.9999C66.5172 36.188 65.1211 37.3514 62.9108 37.3514C61.7474 37.3514 60.7004 36.886 60.1187 35.9553C59.537 35.0247 59.4207 33.5123 56.396 32.9306C54.9999 32.8143 52.3242 32.6979 49.1831 32.9306C50.3465 34.3266 51.1608 38.3984 51.1608 40.9578C51.1608 42.2375 50.5792 42.5865 49.9975 42.5865C48.6015 42.5865 46.5074 39.4454 43.0174 37.933C39.5273 36.3043 35.1065 35.7227 32.7798 35.7227C29.5224 35.7227 28.8244 37.933 29.4061 40.8414C29.7551 43.0518 30.6858 46.7746 30.9184 51.079C34.9902 52.2423 38.8293 52.824 42.552 52.824C48.7178 52.824 55.2326 50.9626 61.8637 46.8909C62.6781 46.4255 63.0271 46.4256 63.2598 47.0072C63.9578 49.2176 63.4924 52.5913 61.3984 55.2671C61.2821 58.2918 58.9553 62.4799 55.5816 64.4576C51.9752 70.507 45.6931 73.8808 38.2476 73.8808C34.2922 73.8808 29.8714 73.0664 25.3343 70.9724C23.0076 74.2298 19.6339 77.6035 12.8864 81.4426H36.5026C60.235 81.4426 78.3834 64.9229 78.3834 40.4924C78.4997 16.2946 60.235 0.00759888 36.5026 0.00759888Z" fill="#F4F4F4"/>
<path d="M51.0445 64.3412C49.0668 64.9229 45.9257 65.6209 42.552 65.5046C42.7847 65.1556 42.901 64.8066 43.0173 64.4576C48.8341 64.2249 55.2326 62.2472 56.5123 57.4774C54.3019 58.9898 49.2995 60.7348 44.0644 60.9675C44.1807 60.6185 44.1807 60.2695 44.1807 59.9205C51.1608 59.1061 58.3737 56.0814 60.235 51.1953C57.094 53.2894 51.3935 56.0814 43.8317 56.5468C39.5273 56.8958 34.4085 56.3141 30.5694 55.2671C30.3368 59.3388 29.5224 63.7596 27.0794 67.9477C30.3368 69.46 34.0595 70.0417 37.0842 70.0417C43.3664 70.2744 49.2995 67.5986 51.0445 64.3412Z" fill="#F4F4F4"/>
<path d="M46.6238 37.003C46.8564 36.305 44.4134 33.2803 38.0149 31.8843C33.5942 30.9536 28.5917 29.5575 26.0323 25.7185C26.0323 25.6021 25.916 25.6021 25.7997 25.6021C25.6833 25.6021 25.6833 25.7185 25.6833 25.8348C25.6833 26.0675 25.6833 26.3001 25.7997 26.5328L25.4507 26.6492C24.7526 25.7185 24.6363 24.5551 25.3343 23.6244C26.265 22.4611 28.359 22.5774 29.5224 23.2754L29.4061 23.6244C28.8244 23.5081 28.1264 23.5081 27.661 23.8571C27.312 24.0898 27.1957 24.4388 27.4284 24.9041C29.6387 28.9759 35.9209 29.7902 43.3664 29.2085C44.1807 29.0922 44.297 28.7432 44.4134 28.3942C45.1114 25.8348 46.2747 23.5081 48.0198 21.7631C46.6238 21.9957 45.3441 21.9957 44.297 22.1121C40.458 22.3447 38.2476 21.8794 37.5496 21.2977L37.6659 20.9487C38.1312 21.065 38.4803 21.065 38.5966 20.9487C38.7129 20.8324 38.5966 20.716 38.4803 20.4834C37.7822 19.7853 34.4085 16.4116 34.4085 16.4116C34.0595 13.5032 29.8714 13.5032 28.2427 16.2953L27.661 16.1789C27.7774 15.5973 28.1264 15.0156 28.359 14.6666C24.869 15.4809 22.8913 18.622 22.5423 21.6467C21.0299 34.56 40.6906 31.6516 46.2747 36.7704C46.1584 36.8867 46.3911 37.2357 46.6238 37.003ZM30.9184 16.2953C31.9655 15.9463 33.3615 16.9933 34.1758 18.5057C34.9902 20.018 34.7575 21.5304 33.7105 21.8794C32.6635 22.2284 31.2674 21.2977 30.5694 19.669C30.4531 19.4363 30.3368 19.2037 30.3368 19.0873H30.5694C30.9184 19.4363 31.2674 19.4363 31.5001 19.32C31.8491 19.0873 31.8491 18.5057 31.5001 17.924C31.2674 17.4586 30.8021 16.9933 30.3368 17.1096L30.2204 16.9933C30.4531 16.6443 30.6858 16.4116 30.9184 16.2953Z" fill="#F4F4F4"/>
<path d="M118.054 48.2883H101.069C99.0912 48.2883 98.0441 49.6843 98.0441 51.313V70.7411C98.0441 72.6024 99.4402 73.7658 101.185 73.7658C102.814 73.7658 104.21 72.7188 104.21 70.7411V54.2214H115.029V70.7411C115.029 72.6024 116.425 73.7658 118.054 73.7658C119.683 73.7658 121.079 72.6024 121.079 70.7411V51.313C121.079 49.6843 119.915 48.2883 118.054 48.2883Z" fill="#F4F4F4"/>
<path d="M147.603 48.2883H147.37C145.625 48.2883 144.346 49.219 143.182 50.964L133.294 65.0406V51.313C133.294 49.4516 132.131 48.2883 130.385 48.2883C128.64 48.2883 127.477 49.3353 127.477 51.313V70.0431C127.477 72.0208 128.757 73.4168 130.851 73.4168H131.084C132.945 73.4168 134.225 72.4861 135.388 70.7411L145.276 56.6645V70.5084C145.276 72.3698 146.44 73.5331 148.185 73.5331C149.814 73.5331 151.093 72.4861 151.093 70.5084V51.7784C151.093 49.568 149.814 48.2883 147.603 48.2883Z" fill="#F4F4F4"/>
<path d="M181.457 67.6H179.945V51.0803C179.945 49.219 178.548 48.0556 176.803 48.0556C175.175 48.0556 173.779 49.1026 173.779 51.0803V67.6H163.192V51.0803C163.192 49.219 161.912 48.0556 160.167 48.0556C158.422 48.0556 157.143 49.1026 157.143 51.0803V70.5084C157.143 72.1371 158.19 73.4168 160.167 73.4168H178.432V76.0925C178.432 77.9539 179.712 79.1172 181.341 79.1172C183.086 79.1172 184.365 78.0702 184.365 76.0925V70.5084C184.482 68.647 183.318 67.6 181.457 67.6Z" fill="#F4F4F4"/>
<path d="M212.053 67.6H210.424V51.0803C210.424 49.219 209.028 48.0556 207.283 48.0556C205.655 48.0556 204.259 49.1026 204.259 51.0803V67.6H193.672V51.0803C193.672 49.219 192.392 48.0556 190.647 48.0556C188.902 48.0556 187.623 49.1026 187.623 51.0803V70.5084C187.623 72.1371 188.67 73.4168 190.647 73.4168H208.912V76.0925C208.912 77.9539 210.192 79.1172 211.82 79.1172C213.566 79.1172 214.845 78.0702 214.845 76.0925V70.5084C214.962 68.647 213.798 67.6 212.053 67.6Z" fill="#F4F4F4"/>
<path d="M241.719 69.2287L233.459 51.1967C232.528 49.219 231.249 48.4046 229.387 48.4046H229.038C227.06 48.4046 225.781 49.219 224.85 51.1967L216.59 69.2287C215.776 70.9737 216.358 72.6024 217.986 73.1841C219.499 73.7658 220.895 73.4168 221.709 71.6718L223.57 67.7163C225.199 68.298 227.293 68.5307 229.271 68.5307C231.365 68.5307 233.226 68.298 234.739 67.7163L236.484 71.6718C237.298 73.4168 238.81 73.6495 240.206 73.1841C241.835 72.6024 242.533 70.9737 241.719 69.2287ZM229.155 63.1792C227.875 63.1792 226.595 63.0629 225.548 62.7139L229.038 54.8031L232.528 62.7139C231.714 63.0629 230.434 63.1792 229.155 63.1792Z" fill="#F4F4F4"/>
<path d="M125.267 27.2315H123.754V10.9445C123.754 9.31582 122.707 8.03613 120.73 8.03613H106.769C105.141 8.03613 104.094 9.08315 104.094 11.0609V15.0163C104.094 17.8083 104.094 20.0187 103.512 22.4618C103.047 24.7885 102.465 26.1845 101.534 27.3479H100.836C98.8585 27.3479 97.9278 28.5112 97.9278 30.3726V35.9567C97.9278 37.8181 99.2075 38.9814 100.953 38.9814C102.698 38.9814 103.977 37.9344 103.977 35.9567V33.281H122.358V35.9567C122.358 37.8181 123.638 38.9814 125.267 38.9814C127.012 38.9814 128.291 37.9344 128.291 35.9567V30.3726C128.291 28.5112 127.361 27.2315 125.267 27.2315ZM117.705 27.2315H107.816C108.398 25.9518 108.863 24.7885 109.329 22.9271C109.678 21.0657 109.91 19.2044 109.91 16.7613V13.8529H117.589V27.2315H117.705Z" fill="#F4F4F4"/>
<path d="M142.601 7.80346C135.272 7.80346 129.687 13.2712 129.687 20.6004C129.687 28.0459 135.272 33.3973 142.601 33.3973C149.93 33.3973 155.514 27.8132 155.514 20.484C155.514 13.2712 149.814 7.80346 142.601 7.80346ZM142.601 27.6969C138.645 27.6969 135.737 24.6721 135.737 20.6004C135.737 16.5286 138.645 13.6202 142.601 13.6202C146.672 13.6202 149.465 16.645 149.465 20.6004C149.465 24.6721 146.789 27.6969 142.601 27.6969Z" fill="#F4F4F4"/>
<path d="M200.536 7.80346C193.207 7.80346 187.623 13.2712 187.623 20.6004C187.623 28.0459 193.207 33.3973 200.536 33.3973C207.865 33.3973 213.449 27.8132 213.449 20.484C213.333 13.2712 207.749 7.80346 200.536 7.80346ZM200.536 27.6969C196.581 27.6969 193.672 24.6721 193.672 20.6004C193.672 16.5286 196.581 13.6202 200.536 13.6202C204.608 13.6202 207.4 16.645 207.4 20.6004C207.4 24.6721 204.608 27.6969 200.536 27.6969Z" fill="#F4F4F4"/>
<path d="M183.435 27.2315H181.922V10.9445C181.922 9.31582 180.875 8.03613 178.897 8.03613H164.937C163.308 8.03613 162.261 9.08315 162.261 11.0609V15.0163C162.261 17.8083 162.261 20.0187 161.68 22.4618C161.214 24.7885 160.633 26.1845 159.702 27.3479H159.004C157.026 27.3479 156.096 28.5112 156.096 30.3726V35.9567C156.096 37.8181 157.375 38.9814 159.12 38.9814C160.865 38.9814 162.145 37.9344 162.145 35.9567V33.281H180.526V35.9567C180.526 37.8181 181.806 38.9814 183.551 38.9814C185.296 38.9814 186.576 37.9344 186.576 35.9567V30.3726C186.459 28.5112 185.412 27.2315 183.435 27.2315ZM175.756 27.2315H165.868C166.45 25.9518 166.915 24.7885 167.38 22.9271C167.729 21.0657 167.962 19.2044 167.962 16.7613V13.8529H175.64V27.2315H175.756Z" fill="#F4F4F4"/>
</svg>
