<svg width="171" height="118" viewBox="0 0 171 118" fill="none" xmlns="http://www.w3.org/2000/svg">
<path d="M99.5998 88.4172V84.4119L100.915 83.7866V83.4715C100.915 81.7863 101.242 80.378 101.894 79.2466C102.56 78.0913 103.562 77.1962 104.904 76.5589C105.944 76.0648 106.816 75.7808 107.515 75.7116V79.3111C107.009 79.3516 106.51 79.4853 106.025 79.7168C105.264 80.0773 104.884 80.7193 104.884 81.6383V81.9797L107.496 80.7384V84.665L104.949 85.8751V96.3442L100.92 98.2585V87.7894L99.6046 88.4148L99.5998 88.4172Z" fill="#F4F4F4"/>
<path d="M108.756 78.6666V74.8976L112.962 72.8998V76.6687L108.756 78.6666ZM108.849 94.4896V79.9364L112.878 78.0221V92.5752L108.849 94.4896Z" fill="#F4F4F4"/>
<path d="M114.463 81.3925V77.2678L115.819 76.6234V72.9451L119.848 71.0308V74.7091L122.522 73.4392V77.5638L119.848 78.8337V83.7699C119.848 84.2783 119.939 84.6077 120.118 84.7533C120.297 84.9013 120.576 84.8846 120.956 84.7031C121.445 84.4692 121.953 84.0658 122.479 83.493V87.4791C121.684 88.4124 120.753 89.1357 119.681 89.6441C118.423 90.2408 117.466 90.3148 116.807 89.8613C116.148 89.4102 115.819 88.3432 115.819 86.6652V80.748L114.463 81.3925Z" fill="#F4F4F4"/>
<path d="M124.252 72.6157L128.281 70.7014V72.7637C129.265 70.7038 130.41 69.3623 131.721 68.7393C132.936 68.1617 133.89 68.1856 134.585 68.8109C135.28 69.4363 135.626 70.5797 135.626 72.2434V81.7672L131.597 83.6815V75.8214C131.597 75.0432 131.449 74.5133 131.155 74.2293C130.861 73.9452 130.468 73.9214 129.976 74.1553C129.47 74.3964 129.062 74.8045 128.749 75.3798C128.436 75.9574 128.281 76.6281 128.281 77.3967V85.2569L124.252 87.1712V72.6157Z" fill="#F4F4F4"/>
<path d="M137.23 73.7376C137.23 72.6873 137.373 71.6251 137.659 70.551C137.946 69.4769 138.342 68.4815 138.846 67.565C139.349 66.646 139.963 65.8177 140.684 65.0754C141.405 64.3331 142.185 63.765 143.018 63.3687C143.978 62.9128 144.835 62.7171 145.586 62.7839C146.338 62.8508 146.947 63.1444 147.41 63.6647C147.873 64.1851 148.224 64.8606 148.46 65.6936C148.699 66.5266 148.818 67.4886 148.818 68.5842C148.818 69.0496 148.811 69.4029 148.797 69.644L141.111 73.296C141.271 74.0168 141.564 74.4823 141.997 74.6947C142.429 74.9048 142.961 74.8594 143.598 74.5587C144.496 74.1314 145.345 73.222 146.145 71.8304L148.372 73.1313C147.15 75.6638 145.486 77.4302 143.379 78.4327C142.185 79.0008 141.121 79.1893 140.187 79.0031C139.254 78.8146 138.528 78.268 138.008 77.3585C137.485 76.4515 137.225 75.2437 137.225 73.7376H137.23ZM141.051 70.7133L145.04 68.8181C144.963 68.04 144.751 67.4981 144.398 67.1926C144.044 66.8871 143.596 66.8632 143.052 67.1234C142.534 67.3692 142.097 67.8156 141.741 68.4625C141.385 69.1093 141.156 69.8588 141.051 70.7133Z" fill="#F4F4F4"/>
<path d="M149.659 73.2053L151.172 69.391C152.497 69.8421 153.812 69.7586 155.117 69.138C155.793 68.8157 156.132 68.3885 156.132 67.8514C156.132 67.596 155.993 67.4504 155.717 67.417C155.44 67.3812 154.965 67.417 154.287 67.5148C153.776 67.5864 153.342 67.6318 152.981 67.6509C152.623 67.6676 152.256 67.639 151.883 67.5602C151.511 67.4814 151.212 67.3478 150.988 67.1568C150.764 66.9658 150.58 66.6794 150.434 66.2975C150.289 65.9156 150.217 65.443 150.217 64.882C150.217 63.3401 150.642 61.939 151.492 60.6763C152.341 59.4136 153.449 58.4564 154.817 57.8072C155.659 57.4062 156.495 57.1627 157.323 57.0768C158.151 56.9908 158.894 57.0672 159.55 57.3083L158.173 61.2062C157.578 61.0892 156.977 61.0558 156.371 61.1107C155.762 61.1656 155.232 61.3016 154.776 61.5165C154.473 61.6621 154.241 61.8339 154.082 62.0392C153.922 62.2421 153.843 62.4593 153.843 62.6885C153.843 62.9439 153.979 63.0895 154.251 63.1253C154.523 63.1611 155.008 63.142 155.707 63.0656C156.218 63.0011 156.652 62.9653 157.013 62.9558C157.371 62.9462 157.738 62.982 158.111 63.0608C158.483 63.1396 158.781 63.2733 159.006 63.4642C159.23 63.6552 159.414 63.9368 159.56 64.3044C159.705 64.6744 159.777 65.1303 159.777 65.6769C159.777 67.2666 159.357 68.6892 158.514 69.94C157.672 71.1931 156.533 72.1598 155.096 72.8425C153.046 73.8163 151.232 73.9405 149.659 73.2101V73.2053Z" fill="#F4F4F4"/>
<path d="M160.555 68.0256L162.068 64.2113C163.393 64.6624 164.708 64.5789 166.014 63.9583C166.689 63.6361 167.028 63.2088 167.028 62.6717C167.028 62.4163 166.89 62.2707 166.613 62.2373C166.336 62.2015 165.861 62.2373 165.183 62.3352C164.672 62.4068 164.238 62.4522 163.878 62.4712C163.519 62.488 163.152 62.4593 162.78 62.3805C162.407 62.3018 162.109 62.1681 161.884 61.9772C161.66 61.7862 161.476 61.4998 161.331 61.1179C161.185 60.7359 161.113 60.2633 161.113 59.7024C161.113 58.1604 161.538 56.7593 162.388 55.4942C163.238 54.2316 164.345 53.2744 165.713 52.6251C166.556 52.2241 167.391 51.9807 168.219 51.8947C169.048 51.8088 169.79 51.8852 170.446 52.1263L169.069 56.0241C168.475 55.9072 167.873 55.8738 167.267 55.9287C166.661 55.9836 166.128 56.1196 165.673 56.3344C165.369 56.48 165.138 56.6519 164.978 56.8572C164.818 57.0601 164.739 57.2773 164.739 57.5064C164.739 57.7618 164.875 57.9074 165.147 57.9432C165.419 57.979 165.904 57.9599 166.603 57.8836C167.114 57.8191 167.549 57.7833 167.909 57.7738C168.267 57.7642 168.635 57.8 169.007 57.8788C169.379 57.9576 169.678 58.0912 169.902 58.2822C170.127 58.4731 170.31 58.7548 170.456 59.1224C170.602 59.4924 170.673 59.9483 170.673 60.4949C170.673 62.0846 170.253 63.5072 169.41 64.7603C168.568 66.0134 167.429 66.9802 165.992 67.6628C163.942 68.6367 162.128 68.7608 160.555 68.0304V68.0256Z" fill="#F4F4F4"/>
<path d="M145.694 10.7154L153.003 7.25194L153.005 24.476L145.699 27.9419L145.703 51.9735L132.485 58.2416L132.48 34.2171L128.768 35.9763L128.763 18.7498L132.475 16.9882V6.63372L145.691 0.363251L145.694 10.7154Z" fill="#F4F4F4"/>
<path d="M112.363 67.8609L112.356 26.6028L125.577 20.3299L125.584 61.5881L112.363 67.8609Z" fill="#F4F4F4"/>
<path d="M99.8123 37.5421C101.941 33.8137 103.839 30.5699 109.744 27.7676V44.9941L108.357 45.6529C108.283 45.6863 108.212 45.7198 108.138 45.7532C105.794 46.8655 103.56 49.2023 102.006 52.1788C100.356 55.7138 99.5783 59.521 99.829 62.846V73.7304L86.6125 80.0009L86.6054 38.7475L99.8313 32.4699L99.8123 37.5421Z" fill="#F4F4F4"/>
<path d="M69.9804 46.6339L83.204 40.3563L83.2111 81.6145L69.9899 87.8873L69.9804 46.6339Z" fill="#F4F4F4"/>
<path d="M64.1467 54.3461C65.4285 55.7353 66.4071 57.5494 67.042 59.6976C67.7629 62.149 68.1162 64.9035 68.0875 67.8514V68.0113C68.1162 71.0236 67.7534 74.2054 67.0182 77.4325C66.3785 80.2229 65.3998 83.0156 64.1252 85.677C62.9723 88.0783 61.5091 90.2838 59.8454 92.1313C58.2319 93.9119 56.4536 95.2868 54.6539 96.1389C50.861 97.9387 47.4143 97.4899 45.1276 94.9908V110.107L31.9088 116.378L31.8992 64.6911L45.1205 58.4206V63.4881C47.2782 58.6665 50.7441 54.7758 54.4319 53.0262C56.3748 52.1048 58.1722 51.7802 59.8073 52.026C61.4829 52.279 62.9628 53.0691 64.1467 54.3414V54.3461ZM55.7232 74.0216V73.8187C55.6325 69.7991 53.0045 67.8275 49.8203 69.3384C49.7654 69.3647 49.7105 69.391 49.6556 69.4196C46.3951 71.0833 43.8291 75.7402 43.9174 79.8314C44.0058 83.8534 46.6338 85.8226 49.8179 84.3117C49.8728 84.2854 49.9277 84.2592 49.9826 84.2305C53.2026 82.6384 55.7662 78.0746 55.7208 74.024" fill="#F4F4F4"/>
<path d="M30.0136 93.4632V93.616C30.1902 97.5711 28.844 102.109 26.3854 105.849C23.7025 109.556 20.4945 112.382 17.21 113.941C16.8974 114.089 16.5847 114.225 16.272 114.351C16.2004 114.387 16.1288 114.42 16.0572 114.454C13.1809 115.819 10.3166 116.669 7.54774 116.979C4.87677 117.27 2.34184 116.97 0.0384521 116.082L4.50202 104.216C6.34473 104.854 8.34498 105.073 10.4479 104.87C12.3168 104.713 14.2622 104.171 16.2171 103.271C17.4869 102.67 18.1266 101.903 18.1266 101.001V100.848C18.0717 100.376 17.8044 100.08 17.432 100.085C16.4415 99.9938 15.4103 100.039 14.3577 100.223C12.3479 100.521 10.5529 100.681 8.96797 100.71C7.52626 100.755 6.15855 100.514 4.91018 99.9914C3.82413 99.526 2.93619 98.6524 2.32991 97.4327C1.6926 96.0554 1.37991 94.3487 1.42049 92.4631V92.3031C1.38468 90.2408 1.72363 88.0114 2.40152 85.794C3.04599 83.7484 4.01031 81.7744 5.21571 80.0391C6.52614 78.1749 8.0132 76.5446 9.59096 75.2413C11.3549 73.7829 13.1737 72.599 15.0021 71.7302C15.0737 71.6967 15.1454 71.6633 15.217 71.6299C17.8402 70.3839 20.3799 69.5986 22.8408 69.2597C25.1633 68.9136 27.3808 69.0472 29.4335 69.644L25.2612 81.8221C23.5832 81.4235 21.8025 81.3185 19.9526 81.5094C18.4035 81.624 16.7923 82.0441 15.1692 82.7626C13.9328 83.3498 13.3146 84.0682 13.3146 84.9227V85.0755C13.3862 85.5672 13.675 85.8608 14.0688 85.8513C15.0761 85.942 16.124 85.8751 17.2029 85.6508C19.2103 85.3548 21.0077 85.1925 22.5926 85.1638C24.0343 85.1137 25.3901 85.3739 26.6241 85.9348C27.6815 86.4265 28.548 87.3097 29.1447 88.5175C29.7605 89.9019 30.0637 91.5942 30.0183 93.4656L30.0136 93.4632Z" fill="#F4F4F4"/>
<path d="M157.197 31.3982L170.418 25.1205L170.425 40.1319L157.204 46.4024L157.197 31.3982Z" fill="#F4F4F4"/>
</svg>
