<svg width="311" height="42" viewBox="0 0 311 42" fill="none" xmlns="http://www.w3.org/2000/svg">
<path d="M0.0551758 8.94828H28.2891L0.0551758 33.3671V41.5106H40.7493V33.3671H12.5038L40.7493 8.94828V0.816452H0.0551758V8.94828Z" fill="#F4F4F4"/>
<path d="M84.3369 0.816452H70.78C61.742 0.816452 57.223 5.33932 57.223 14.3851V27.942C57.223 36.9877 61.7459 41.5106 70.7916 41.5106H84.3486C93.3943 41.5106 97.9172 36.9877 97.9172 27.942V14.3851C97.9094 5.33932 93.3826 0.816452 84.3369 0.816452ZM89.762 26.5886C89.762 31.1076 87.5025 33.3671 82.9835 33.3671H72.1333C67.6066 33.3671 65.3898 31.1504 65.3898 26.5886V15.7384C65.3898 11.2117 67.1632 8.98329 70.78 8.98329H82.9835C87.4986 8.98329 89.762 11.235 89.762 15.7618V26.5886Z" fill="#F4F4F4"/>
<path d="M146.93 29.167L122.674 0.816452H114.368V41.5106H122.511V13.16L146.79 41.5106H155.062V0.816452H146.93V29.167Z" fill="#F4F4F4"/>
<path d="M171.535 8.94828H204.728L212.218 0.816452H171.535V8.94828Z" fill="#F4F4F4"/>
<path d="M171.535 25.247H204.728L212.218 17.1035H171.535V25.247Z" fill="#F4F4F4"/>
<path d="M171.535 41.534H204.728L212.218 33.3905H171.535V41.534Z" fill="#F4F4F4"/>
<path d="M245.165 25.2353H270.926C275.452 25.2353 277.716 26.5886 277.716 29.2954C277.716 32.0021 275.452 33.3593 270.926 33.3671H245.165V41.534H272.291C281.36 41.5184 285.894 36.9877 285.894 27.942C285.894 20.7085 281.375 17.0918 272.337 17.0918H253.297V8.98329H285.894V0.816452H245.165V25.2353Z" fill="#F4F4F4"/>
<path d="M302.321 0.828119V34.0205L310.453 41.5223V0.828119H302.321Z" fill="#F4F4F4"/>
</svg>
