<svg width="328" height="55" viewBox="0 0 328 55" fill="none" xmlns="http://www.w3.org/2000/svg">
<path d="M61.9279 0.0301971H26.4354V2.55336H0.0684052L26.057 24.8833V12.4778L61.9279 0.0301971Z" fill="#F4F4F4"/>
<path d="M4.61009 10.4593L17.9828 33.42L20.0014 32.2425L33.1639 54.3202L36.6122 21.6032L25.4262 28.4999L4.61009 10.4593Z" fill="#F4F4F4"/>
<path d="M36.9486 47.7179L49.7326 25.5562L47.3777 24.2525L59.7832 3.43647L29.2109 14.244L39.8502 20.4258L36.9486 47.7179Z" fill="#F4F4F4"/>
<path d="M216.303 39.4336H237.54V35.5227H220.214V28.7942H237.54V24.8833H216.303V39.4336Z" fill="#F4F4F4"/>
<path d="M216.303 14.244L217.649 18.1549H237.54V14.244H216.303Z" fill="#F4F4F4"/>
<path d="M95.1074 14.244H70.9272V18.1129H80.5993V39.4336H85.4353V18.1129H95.1074V14.244Z" fill="#F4F4F4"/>
<path d="M118.363 14.244V24.9254H103.812V14.244H99.9435V39.4336H103.812V28.7522H118.363V39.4336H122.231V14.244H118.363Z" fill="#F4F4F4"/>
<path d="M146.244 14.244V35.3124H135.562C134.048 35.3124 132.829 34.0929 132.829 32.579V14.244H128.077V31.1492C128.077 35.6909 131.777 39.3915 136.319 39.3915H151.29V14.244H146.244Z" fill="#F4F4F4"/>
<path d="M175.596 14.244V32.1584L161.929 14.244H157.177V39.4336H161.929V21.5191L175.554 39.3915H175.596V39.4336H180.348V14.244H175.596Z" fill="#F4F4F4"/>
<path d="M202.174 14.244H187.245L188.548 18.1549H202.804C204.318 18.1549 205.538 19.3744 205.538 20.8883V32.8313C205.538 34.3452 204.318 35.5647 202.804 35.5647H191.955V24.8833H187.245V39.3915H202.174C206.715 39.3915 210.416 35.6909 210.416 31.1492V22.4863C210.416 17.9446 206.757 14.244 202.174 14.244Z" fill="#F4F4F4"/>
<path d="M256.842 28.7942H259.66C263.444 28.7942 266.514 25.7244 266.514 21.9396V21.1406C266.514 17.3559 263.444 14.2861 259.66 14.2861H243.301L244.605 18.197H258.945C260.459 18.197 261.678 19.4165 261.678 20.9304V22.1499C261.678 23.6638 260.459 24.8833 258.945 24.8833H243.259V39.4336H247.17V28.7942H250.576L261.216 39.4336H267.397L267.439 39.3915L256.842 28.7942Z" fill="#F4F4F4"/>
<path d="M289.769 28.7522L300.871 14.244H293.512L286.069 24.0002H281.401L269.626 39.4336H276.985L285.101 28.7522H289.769Z" fill="#F4F4F4"/>
<path d="M293.933 30.7287H286.363L293.68 39.4336H301.25L293.933 30.7287Z" fill="#F4F4F4"/>
<path d="M284.092 21.9817L277.574 14.244H270.005L276.481 21.9817H284.092Z" fill="#F4F4F4"/>
<path d="M319.458 24.0002L326.944 14.244H307.347L303.184 20.0473H315.127L308.441 28.7522H321.813V30.8548C321.813 32.3687 320.594 33.5882 319.08 33.5882H303.226L307.389 39.3915H319.711C324.126 39.2233 327.659 35.6068 327.659 31.1492V23.9582H319.458V24.0002Z" fill="#F4F4F4"/>
</svg>
