<svg width="238" height="44" viewBox="0 0 238 44" fill="none" xmlns="http://www.w3.org/2000/svg">
<path d="M196.876 34.6167C198.299 36.0026 200.349 36.6954 203.028 36.6954C204.788 36.743 206.52 36.2398 207.98 35.2559C209.362 34.2997 210.209 33.2812 210.522 32.2108H218.887C217.55 36.3679 215.497 39.3351 212.729 41.1124C209.961 42.8895 206.617 43.7817 202.695 43.7886C200.18 43.8251 197.681 43.3824 195.332 42.4842C193.231 41.6687 191.336 40.4003 189.782 38.7687C188.231 37.1111 187.034 35.1534 186.269 33.0163C185.42 30.6554 184.999 28.1617 185.027 25.6529C185.006 23.1876 185.438 20.7393 186.299 18.4297C187.091 16.278 188.317 14.3119 189.899 12.6535C191.483 10.9954 193.39 9.68035 195.503 8.79033C197.778 7.83208 200.227 7.35441 202.695 7.38722C205.36 7.32376 208.002 7.90863 210.391 9.09163C212.518 10.1803 214.36 11.7497 215.774 13.675C217.205 15.6429 218.239 17.8703 218.819 20.2329C219.448 22.7466 219.674 25.3442 219.49 27.9289H194.547C194.671 31.0018 195.448 33.231 196.876 34.6167ZM207.61 16.4291C206.475 15.1819 204.742 14.5583 202.415 14.5583C201.112 14.512 199.818 14.7755 198.636 15.3274C197.706 15.7831 196.883 16.4334 196.226 17.2346C195.648 17.9451 195.218 18.7627 194.958 19.6404C194.728 20.3807 194.582 21.144 194.52 21.9166H209.975C209.539 19.4984 208.75 17.6642 207.61 16.4136V16.4291Z" fill="#F4F4F4"/>
<path d="M99.8885 32.715V15.0469H94.957V8.18251H99.8885V0.387695H109.486V8.18251H117.058V15.0469H109.486V31.1561C109.486 33.8895 110.754 35.3132 113.358 35.3132C114.681 35.3166 116 35.1614 117.286 34.8508V42.9677C115.283 43.4788 113.222 43.7354 111.154 43.7316C103.755 43.716 99.8885 39.985 99.8885 32.715Z" fill="#F4F4F4"/>
<path d="M171.19 8.1822V14.8492C173.388 10.1152 176.792 7.71439 183.028 7.64693V16.6472C175.232 16.5796 171.19 18.9129 171.19 25.5799V43.0504H161.524V8.1822H171.19Z" fill="#F4F4F4"/>
<path d="M231.416 30.8496C227.546 30.8496 224.947 33.4479 224.947 37.314C224.947 41.1803 227.546 43.7837 231.416 43.7837C235.287 43.7837 237.881 41.1854 237.881 37.314C237.881 33.4426 235.283 30.8496 231.416 30.8496Z" fill="#F4F4F4"/>
<path d="M231.416 9.22594C227.546 9.22594 224.947 11.8242 224.947 15.6904C224.947 19.5566 227.546 22.16 231.416 22.16C235.287 22.16 237.881 19.5617 237.881 15.6904C237.881 11.819 235.283 9.22594 231.416 9.22594Z" fill="#F4F4F4"/>
<path d="M121.729 18.1235C122.496 15.9775 123.719 14.0229 125.314 12.3942C126.908 10.7652 128.835 9.50044 130.964 8.68667C133.308 7.7888 135.802 7.3461 138.311 7.3823C140.836 7.34795 143.345 7.79049 145.706 8.68667C147.843 9.49305 149.778 10.7548 151.378 12.3844C152.979 14.014 154.205 15.9724 154.972 18.1235C155.847 20.5342 156.278 23.0834 156.244 25.648C156.281 28.2025 155.85 30.7421 154.972 33.1413C154.185 35.2803 152.954 37.2285 151.36 38.8574C149.761 40.464 147.831 41.705 145.706 42.495C143.342 43.3759 140.834 43.8128 138.311 43.7837C135.8 43.8203 133.305 43.3886 130.953 42.5106C128.84 41.715 126.922 40.4744 125.331 38.873C123.736 37.2441 122.506 35.296 121.719 33.1569C120.839 30.7583 120.408 28.2182 120.446 25.6635C120.411 23.093 120.847 20.5377 121.729 18.1235ZM130.361 29.696C130.602 30.9517 131.067 32.154 131.732 33.2452C132.367 34.2838 133.251 35.1467 134.305 35.7552C135.537 36.4174 136.923 36.7402 138.322 36.6905C139.73 36.7381 141.125 36.4155 142.37 35.7552C143.436 35.153 144.329 34.2892 144.969 33.2452C145.634 32.154 146.099 30.9517 146.34 29.696C146.612 28.3639 146.748 27.0075 146.745 25.648C146.746 24.2781 146.611 22.9115 146.34 21.5687C146.107 20.311 145.642 19.1075 144.969 18.0195C144.316 16.9873 143.424 16.1267 142.37 15.5097C141.132 14.829 139.733 14.495 138.322 14.5431C137.013 14.4749 135.708 14.762 134.548 15.3738C133.388 15.9858 132.416 16.9 131.732 18.0195C131.058 19.1106 130.593 20.3177 130.361 21.5791C130.09 22.922 129.955 24.2885 129.955 25.6583C129.953 27.0144 130.09 28.3673 130.361 29.696Z" fill="#F4F4F4"/>
<path d="M88.8874 24.5147C86.5543 22.9143 83.1713 21.9841 78.822 21.3969C73.7553 20.6642 72.0664 19.7963 72.0664 17.5982C72.0664 15.4002 73.8697 13.997 77.0031 13.997C80.3653 13.997 81.9035 15.3067 82.449 18.1127H91.3246C90.8414 14.1582 89.1836 11.4508 86.7362 9.79834C84.1379 8.13029 80.7342 7.39754 76.9355 7.39754C73.4019 7.39754 69.8684 8.26538 67.4001 10.0634C66.0603 10.9647 64.9677 12.1876 64.2225 13.62C63.4771 15.0525 63.1028 16.6489 63.1338 18.2634C63.1338 21.6618 64.0016 24.0626 66.1321 25.7307C68.2627 27.3989 71.4013 28.3966 76.0054 29.1293C81.072 29.8619 83.0726 30.8649 83.0726 33.2864C83.0726 35.708 81.3369 37.0851 77.6059 37.0851C73.3811 37.0851 71.9677 35.3183 71.4896 32.2472H62.4945C62.8687 39.7197 68.3251 43.8197 77.689 43.8197C86.9544 43.8197 92.3535 39.8859 92.3535 32.351C92.3535 28.5836 91.0908 26.1828 88.8874 24.5147Z" fill="#F4F4F4"/>
<path d="M35.6387 34.6172C37.0626 36.0029 39.1135 36.6957 41.7914 36.6957C43.5518 36.7433 45.283 36.2401 46.7436 35.2563C48.1259 34.3002 48.9782 33.2817 49.29 32.2111H57.651C56.3174 36.3684 54.2664 39.3356 51.4984 41.1127C48.7305 42.8899 45.3839 43.782 41.4588 43.7889C38.9454 43.8263 36.448 43.3836 34.1007 42.4845C31.9986 41.6692 30.1019 40.4006 28.5455 38.769C26.9938 37.109 25.7968 35.1498 25.0275 33.0113C24.18 30.6501 23.7612 28.1566 23.7908 25.648C23.7684 23.1829 24.1982 20.7349 25.0588 18.4248C25.8522 16.2743 27.0782 14.3093 28.6612 12.6512C30.2441 10.9933 32.1503 9.67758 34.2618 8.7854C36.5368 7.8273 38.9853 7.34964 41.4537 7.38229C44.1227 7.32391 46.7658 7.91603 49.1549 9.10765C51.2817 10.1974 53.1264 11.7665 54.5435 13.6908C55.9703 15.6603 57.0027 17.8872 57.5835 20.2489C58.2149 22.7621 58.4412 25.3601 58.2539 27.9448H33.3108C33.4356 31.0073 34.2114 33.2313 35.6387 34.6172ZM46.3799 16.4294C45.2402 15.1822 43.5079 14.5587 41.1834 14.5587C39.8793 14.5123 38.5828 14.7758 37.4004 15.3278C36.4693 15.7834 35.647 16.4337 34.9892 17.2349C34.414 17.9467 33.9833 18.764 33.7213 19.6409C33.4969 20.3823 33.3507 21.1451 33.2848 21.9169H48.7444C48.3043 19.4989 47.5163 17.6645 46.3799 16.4139V16.4294Z" fill="#F4F4F4"/>
<path d="M9.95839 8.1822V14.8492C12.1617 10.1152 15.5602 7.71439 21.796 7.64693V16.6472C14.0272 16.5796 9.95839 18.9129 9.95839 25.5799V43.0504H0.292969V8.1822H9.95839Z" fill="#F4F4F4"/>
</svg>
