<svg width="147" height="126" viewBox="0 0 147 126" fill="none" xmlns="http://www.w3.org/2000/svg">
<path d="M82.9711 75.6983C92.7264 72.1682 98.785 63.6461 98.785 53.4512C98.785 44.2709 93.3611 38.4125 87.6432 35.0515L100.754 12.448H59.4831V26.9169H75.578L65.8696 43.4904L69.5349 43.5112C70.8798 43.5112 72.2768 43.6751 73.6789 44.0575C80.3853 45.8759 83.7568 51.5366 82.3494 56.6951C80.942 61.8589 75.2944 64.2756 68.588 62.452C64.4778 61.336 61.161 57.9256 59.6444 54.1744L51.5827 67.9358C58.3671 74.6812 66.1791 77.3398 73.6009 77.3398C76.7564 77.3398 79.9171 76.8013 82.9659 75.6983M73.6945 125.609L0.855469 0.741699H146.534L73.6945 125.609Z" fill="#F4F4F4"/>
</svg>
