<svg width="193" height="91" viewBox="0 0 193 91" fill="none" xmlns="http://www.w3.org/2000/svg">
<path fill-rule="evenodd" clip-rule="evenodd" d="M141.322 45.7781C141.322 37.812 135.941 32.1672 128.081 32.1672C120.167 32.1672 114.786 37.7593 114.786 45.7781C114.786 53.5859 120.167 59.2835 128.081 59.2835C135.889 59.2835 141.322 53.5859 141.322 45.7781ZM128.081 67.8826C115.578 67.8826 105.554 58.4921 105.554 45.7781C105.554 33.1168 115.63 23.5681 128.081 23.5681C140.478 23.5681 150.555 33.1168 150.555 45.7781C150.555 58.4921 140.478 67.8826 128.081 67.8826ZM154.986 25.309C154.986 24.6232 155.355 24.2012 156.094 24.2012H163.058C163.743 24.2012 164.165 24.5705 164.165 25.309V42.0325L179.728 24.8342C180.15 24.3594 180.572 24.2012 181.205 24.2012H191.229C191.915 24.2012 191.967 24.887 191.545 25.3618L172.026 45.0923L192.601 66.1944C193.023 66.6692 192.97 67.355 192.284 67.355H182.366C181.522 67.355 181.311 67.144 180.836 66.7747L164.165 48.5214V66.2472C164.165 66.933 163.796 67.355 163.058 67.355H156.094C155.408 67.355 154.986 66.9858 154.986 66.2472V25.309Z" fill="#F4F4F4"/>
<path d="M45.4132 22.4599C47.4178 22.46 49.2119 23.2513 50.478 24.5701C51.7968 25.889 52.5882 27.6831 52.5882 29.635C52.5881 31.6395 51.7967 33.4332 50.478 34.6993C49.1592 36.0181 47.365 36.8094 45.4132 36.8095C43.4086 36.8095 41.615 36.018 40.3489 34.6993C39.03 33.3804 38.2387 31.5868 38.2386 29.635C38.2386 27.683 39.0827 25.889 40.3489 24.5701C41.6677 23.2514 43.4614 22.4599 45.4132 22.4599Z" fill="#F4F4F4"/>
<path fill-rule="evenodd" clip-rule="evenodd" d="M47.2065 0.935844C67.4646 0.935844 77.6467 0.936058 83.9246 7.21394C90.2023 13.4918 90.2022 23.6736 90.2022 43.9315V47.5187C90.2022 67.7768 90.2025 77.9589 83.9246 84.2368C77.6467 90.5146 67.4645 90.5143 47.2065 90.5143H43.6193C23.3615 90.5143 13.1796 90.5145 6.90175 84.2368C0.62389 77.9589 0.623657 67.8295 0.623657 47.5187V43.9315C0.623657 23.6735 0.623944 13.4918 6.90175 7.21394C13.2324 0.936068 23.3613 0.935844 43.6193 0.935844H47.2065ZM62.0842 45.5667C61.8204 45.1974 61.2925 45.1447 60.976 45.4611C56.5974 49.2066 51.2162 51.6335 45.4132 51.6335C39.6102 51.6335 34.229 49.2066 29.8503 45.4611C29.5339 45.1975 29.0065 45.2504 28.7427 45.5667L24.1003 51.8973C23.8893 52.2138 23.9417 52.6361 24.2054 52.8999C28.1092 56.0651 32.6464 58.2283 37.3942 59.3361L27.582 76.6398C27.3183 77.1146 27.6876 77.7474 28.2151 77.7474H37.8167C38.133 77.7473 38.3969 77.5893 38.5024 77.273L45.3606 61.9739L52.2188 77.273C52.3244 77.5366 52.5881 77.7474 52.9045 77.7474H62.5061C63.0861 77.7472 63.4028 77.1672 63.1393 76.6398L53.3265 59.3361C58.0743 58.2283 62.6115 56.1179 66.5153 52.8999C66.9372 52.6361 66.9902 52.2138 66.7265 51.8973L62.0842 45.5667ZM45.4132 13.8609C41.0346 13.8609 37.0777 15.6546 34.2289 18.5033C31.3802 21.3521 29.5866 25.3089 29.5866 29.6875C29.5866 34.0662 31.3802 38.023 34.2289 40.8718C37.0777 43.7205 41.0873 45.5141 45.4132 45.5141C49.7917 45.5141 53.7487 43.7205 56.5974 40.8718C59.4461 38.023 61.2398 34.0662 61.2398 29.6875C61.2398 25.3089 59.4461 21.3521 56.5974 18.5033C53.7487 15.6546 49.7917 13.861 45.4132 13.8609Z" fill="#F4F4F4"/>
</svg>
