<svg width="201" height="110" viewBox="0 0 201 110" fill="none" xmlns="http://www.w3.org/2000/svg">
<path d="M18.1002 36.0084C22.9522 36.0084 27.4186 34.4242 30.8761 31.0119L26.5542 26.6418C24.3466 28.8524 21.0307 30.0511 18.1002 30.0511C9.79081 30.0511 6.57124 24.2414 6.52306 18.6666C6.47487 13.0467 9.98055 6.99308 18.1002 6.99308C21.0307 6.99308 24.0093 8.00202 26.2199 10.1645L30.4484 6.08052C26.9879 2.66821 22.666 0.939466 18.1032 0.939466C5.95082 0.939466 0.23451 9.87533 0.282698 18.6666C0.324862 27.4067 5.61049 36.0084 18.1002 36.0084Z" fill="#F4F4F4"/>
<path d="M64.4993 35.2374V34.8037L54.3166 23.3229C60.7045 22.0248 62.8187 17.3657 62.8187 12.7547C62.8187 6.94198 58.6414 1.65636 50.7145 1.61118C45.3807 1.61118 40.0499 1.56299 34.7191 1.56299V35.2374H41.0618V23.9975H47.1636L56.9639 35.2374H64.4993ZM41.0588 18.2812V7.52023H50.7145C54.7021 7.52023 56.479 10.2097 56.479 12.8992C56.479 15.5887 54.7472 18.2782 50.7145 18.2782H41.0588V18.2812Z" fill="#F4F4F4"/>
<path d="M83.136 36.0084C94.9511 36.0084 100.285 27.3134 100.381 18.6184C100.478 9.82714 94.7132 0.939466 83.136 0.939466C71.5106 0.939466 65.8425 9.82715 65.8425 18.6636C65.8425 27.5031 71.3209 36.0084 83.136 36.0084ZM83.136 6.70396C91.0629 6.70396 94.2313 13.0467 94.1349 18.7118C94.0386 24.2354 91.0599 30.1926 83.136 30.1926C75.2091 30.1926 72.2305 24.2836 72.0889 18.76C71.9443 13.0949 75.2091 6.70396 83.136 6.70396Z" fill="#F4F4F4"/>
<path d="M122.141 36.0084C126.993 36.0084 131.46 34.4242 134.917 31.0119L130.592 26.6418C128.385 28.8524 125.069 30.0511 122.138 30.0511C113.826 30.0511 110.609 24.2414 110.561 18.6666C110.513 13.0467 114.019 6.99308 122.138 6.99308C125.069 6.99308 128.047 8.00202 130.255 10.1645L134.483 6.08052C131.023 2.66821 126.701 0.939466 122.138 0.939466C109.986 0.939466 104.266 9.87533 104.315 18.6666C104.366 27.4067 109.651 36.0084 122.141 36.0084Z" fill="#F4F4F4"/>
<path d="M153.168 35.9572C161.622 35.9572 167.724 30.8644 167.724 20.9226V1.65946H161.433V20.9226C161.433 26.6871 158.454 30.1928 153.219 30.1928C147.982 30.1928 144.525 26.9732 144.525 20.9226V1.65946H138.233V20.9226C138.23 31.0601 145.1 35.9572 153.168 35.9572Z" fill="#F4F4F4"/>
<path d="M186.984 30.4337C182.9 30.4337 179.012 28.8013 177.521 25.0999L172.236 27.8375C174.735 33.9875 180.018 36.0988 186.888 36.0988C194.381 36.0988 201.01 32.8822 201.01 25.386C201.01 17.3657 194.477 15.5406 187.463 14.6732C183.43 14.1943 179.97 13.3781 179.97 10.4477C179.97 7.94793 182.229 5.98126 186.936 5.98126C190.586 5.98126 193.758 7.80638 194.911 9.72788L199.956 7.13476C197.411 1.94551 191.984 0.457703 186.746 0.457703C180.551 0.505891 173.727 3.33995 173.727 10.2579C173.727 17.7994 180.069 19.6245 186.936 20.4407C191.406 20.9195 194.718 22.2176 194.718 25.389C194.721 29.0422 190.972 30.4337 186.984 30.4337Z" fill="#F4F4F4"/>
<path d="M0.279694 77.9591H6.59835V65.5597H23.3949V59.723H6.59835V50.5823H24.3526V44.5046H0.279694V77.9591Z" fill="#F4F4F4"/>
<path d="M41.7907 44.4534H30.3069V50.1998H35.5232V72.5952H30.4966V77.9591H46.4318V72.5952H41.7907V44.4534Z" fill="#F4F4F4"/>
<path d="M48.8894 50.1998H59.5118V77.9591H65.8275V50.1998H76.4529V44.4534H48.8894V50.1998Z" fill="#F4F4F4"/>
<path d="M108.766 44.4082H102.45V58.8014L108.766 66.7946V44.4082Z" fill="#F4F4F4"/>
<path d="M80.9133 44.4534V77.9591H87.229V55.368L104.839 78.0073V77.9591H108.766V73.2277L86.0273 44.4534H80.9133Z" fill="#F4F4F4"/>
<path d="M155.725 57.4729C151.711 56.994 148.262 56.1808 148.262 53.2625C148.262 50.7747 150.512 48.8111 155.204 48.8111C158.839 48.8111 161.999 50.6302 163.146 52.5457L168.173 49.9586C165.637 44.7934 160.228 43.3086 155.011 43.3086C148.84 43.3568 142.043 46.1788 142.043 53.0727C142.043 60.584 148.359 62.4031 155.207 63.2163C159.656 63.6952 162.96 64.9872 162.96 68.1465C162.96 71.7817 159.225 73.1732 155.252 73.1732C151.187 73.1732 147.31 71.5438 145.826 67.8604L140.594 70.574V70.6553C143.088 76.73 148.343 78.8232 155.162 78.8232C162.625 78.8232 169.23 75.6157 169.23 68.1495C169.224 60.1533 162.719 58.3343 155.725 57.4729Z" fill="#F4F4F4"/>
<path d="M140.561 70.5867C140.57 70.6108 140.582 70.6318 140.591 70.6529V70.5716L140.561 70.5867Z" fill="#F4F4F4"/>
<path d="M187.514 57.4729C183.494 56.994 180.048 56.1808 180.048 53.2625C180.048 50.7747 182.298 48.8111 186.987 48.8111C190.625 48.8111 193.785 50.6302 194.929 52.5457L199.956 49.9586C197.42 44.7934 192.014 43.3086 186.794 43.3086C180.62 43.3568 173.829 46.1788 173.829 53.0727C173.829 60.584 180.145 62.4031 186.987 63.2163C191.439 63.6952 194.74 64.9872 194.74 68.1465C194.74 71.7817 191.008 73.1732 187.038 73.1732C182.97 73.1732 179.093 71.5438 177.609 67.8604L172.341 70.5891C174.829 76.715 180.093 78.8232 186.942 78.8232C194.408 78.8232 201.01 75.6157 201.01 68.1495C201.01 60.1533 194.502 58.3343 187.514 57.4729Z" fill="#F4F4F4"/>
<path d="M135.923 50.5823V44.4564H114.612V77.9591H135.923V71.7338H120.882V64.1743H135.923V58.2864H120.882V50.5823H135.923Z" fill="#F4F4F4"/>
<path d="M59.2468 93.9422C59.1263 93.641 58.9426 93.3579 58.6414 93.0929C58.2168 92.7496 57.771 92.611 57.1898 92.611C55.9399 92.611 55.2924 93.3579 55.2924 94.2253C55.2924 94.6289 55.4339 95.3366 56.744 95.8607L58.0963 96.4058C60.578 97.4148 61.2647 98.8273 61.2647 100.36C61.2647 102.923 59.4486 104.679 56.9277 104.679C55.3737 104.679 54.4461 104.095 53.7594 103.327C53.0336 102.52 52.7113 101.631 52.63 100.704L54.6689 100.258C54.6689 100.923 54.9129 101.55 55.2351 101.975C55.6176 102.459 56.1808 102.782 56.991 102.782C58.2409 102.782 59.2107 101.875 59.2107 100.523C59.2107 99.1495 58.1596 98.5863 57.2741 98.2219L55.9821 97.6768C54.8707 97.213 53.2383 96.2853 53.2383 94.2675C53.2383 92.4514 54.6509 90.7166 57.1717 90.7166C58.6234 90.7166 59.4516 91.2617 59.8763 91.6231C60.2407 91.9454 60.6232 92.4092 60.9063 92.9754L59.2468 93.9422Z" fill="#F4F4F4"/>
<path d="M63.4873 109.038V95.9185H65.4661V96.8461C66.1919 95.9787 67.1406 95.6956 67.9899 95.6956C70.2307 95.6956 72.1281 97.4093 72.1281 100.114C72.1281 102.981 70.0289 104.677 68.011 104.677C67.5472 104.677 66.3575 104.514 65.4691 103.424V109.038H63.4873ZM65.3426 100.219C65.3426 101.996 66.4931 102.903 67.743 102.903C69.1765 102.903 70.1042 101.671 70.1042 100.198C70.1042 98.6863 69.1765 97.4756 67.743 97.4756C66.4931 97.4726 65.3426 98.361 65.3426 100.219Z" fill="#F4F4F4"/>
<path d="M82.8198 100.177C82.8198 102.779 80.8411 104.677 78.2781 104.677C75.7151 104.677 73.7363 102.779 73.7363 100.177C73.7363 97.5539 75.712 95.6956 78.2781 95.6956C80.8441 95.6956 82.8198 97.5539 82.8198 100.177ZM80.8019 100.198C80.8019 98.2616 79.5309 97.4756 78.2781 97.4756C77.0282 97.4756 75.7572 98.2616 75.7572 100.198C75.7572 101.834 76.727 102.903 78.2781 102.903C79.8351 102.903 80.8019 101.834 80.8019 100.198Z" fill="#F4F4F4"/>
<path d="M86.8585 95.9185V96.6862C87.4458 95.9815 88.1325 95.6984 88.8553 95.6984C89.3613 95.6984 89.9456 95.8794 90.4486 96.2016L89.5601 97.9963C89.1174 97.6951 88.774 97.593 88.4487 97.593C87.7831 97.593 87.4187 97.915 87.1989 98.2583C86.8766 98.7613 86.8555 99.4691 86.8555 100.014V104.414H84.8798V95.9185H86.8585Z" fill="#F4F4F4"/>
<path d="M93.6229 97.7346V104.415H91.6442V97.7346H90.816V95.9215H91.6442V92.8104H93.6229V95.9215H95.1348V97.7346H93.6229Z" fill="#F4F4F4"/>
<path d="M112.067 99.4721L110.474 101.306L112.955 104.414H110.453L109.121 102.758C108.82 103.08 108.414 103.445 107.992 103.749C107.164 104.333 106.317 104.676 105.047 104.676C102.523 104.676 101.008 103.002 101.008 100.821C101.008 99.0444 101.917 98.1168 102.944 97.3488C103.306 97.0868 103.893 96.6832 104.013 96.6019C103.55 96.1381 102.682 95.1081 102.682 93.816C102.682 92.283 103.652 90.7079 105.872 90.7079C108.01 90.7079 109.1 92.1806 109.1 93.6142C109.1 94.4816 108.757 95.0478 108.516 95.3701C108.194 95.7947 107.73 96.2585 106.842 96.9241L109.224 99.8305L110.757 98.0957L112.067 99.4721ZM105.227 98.0807C104.784 98.3216 104.137 98.7673 103.754 99.189C103.188 99.7943 103.029 100.421 103.029 100.906C103.029 101.996 103.857 102.945 105.128 102.945C105.691 102.945 106.158 102.743 106.643 102.421C107.067 102.116 107.652 101.553 107.893 101.309L105.227 98.0807ZM106.399 94.9514C106.881 94.6081 107.206 94.1232 107.206 93.6202C107.206 93.036 106.823 92.4095 105.875 92.4095C105.047 92.4095 104.583 92.9125 104.583 93.5992C104.583 94.063 104.824 94.5087 105.047 94.7677L105.652 95.4966L106.399 94.9514Z" fill="#F4F4F4"/>
<path d="M125.087 93.9422C124.966 93.641 124.783 93.3579 124.481 93.0929C124.057 92.7496 123.614 92.611 123.027 92.611C121.777 92.611 121.129 93.3579 121.129 94.2253C121.129 94.6289 121.271 95.3366 122.581 95.8607L123.933 96.4058C126.415 97.4148 127.102 98.8273 127.102 100.36C127.102 102.923 125.285 104.679 122.765 104.679C121.211 104.679 120.283 104.095 119.596 103.327C118.87 102.52 118.545 101.631 118.467 100.704L120.506 100.258C120.506 100.923 120.747 101.55 121.072 101.975C121.455 102.459 122.021 102.782 122.828 102.782C124.081 102.782 125.048 101.875 125.048 100.523C125.048 99.1495 123.999 98.5863 123.111 98.2219L121.819 97.6768C120.708 97.213 119.075 96.2853 119.075 94.2675C119.075 92.4514 120.488 90.7166 123.009 90.7166C124.46 90.7166 125.289 91.2617 125.713 91.6231C126.075 91.9454 126.46 92.4092 126.74 92.9754L125.087 93.9422Z" fill="#F4F4F4"/>
<path d="M131.306 109.038H129.33V95.9185H131.306V96.8461C132.032 95.9787 132.981 95.6956 133.827 95.6956C136.068 95.6956 137.965 97.4093 137.965 100.114C137.965 102.981 135.866 104.677 133.848 104.677C133.384 104.677 132.194 104.514 131.306 103.424V109.038ZM131.186 100.219C131.186 101.996 132.336 102.903 133.586 102.903C135.019 102.903 135.947 101.671 135.947 100.198C135.947 98.6863 135.019 97.4756 133.586 97.4756C132.333 97.4726 131.186 98.361 131.186 100.219Z" fill="#F4F4F4"/>
<path d="M146.241 95.9215H148.22V104.417H146.241V103.529C145.374 104.538 144.305 104.679 143.696 104.679C141.076 104.679 139.582 102.499 139.582 100.159C139.582 97.3943 141.477 95.6984 143.717 95.6984C144.344 95.6984 145.434 95.861 146.241 96.9121V95.9215ZM141.6 100.198C141.6 101.671 142.531 102.903 143.961 102.903C145.211 102.903 146.362 101.996 146.362 100.219C146.362 98.3607 145.211 97.4753 143.961 97.4753C142.528 97.4723 141.6 98.683 141.6 100.198Z" fill="#F4F4F4"/>
<path d="M43.3357 98.1707H0.279694V100.164H43.3357V98.1707Z" fill="#F4F4F4"/>
<path d="M201.01 98.1707H157.957V100.164H201.01V98.1707Z" fill="#F4F4F4"/>
</svg>
